<svg xmlns="http://www.w3.org/2000/svg" viewBox="0 0 57.132 57.132"><path d="M53.707 41.526a28.415 28.415 0 003.234-13.151C56.941 12.729 44.212 0 28.566 0S.191 12.729.191 28.375 12.919 56.75 28.566 56.75c4.376 0 8.56-.976 12.452-2.882l2.699 2.699c.365.364.851.564 1.367.564s1.002-.2 1.367-.565l9.79-9.791c.364-.364.565-.85.565-1.367a1.92 1.92 0 00-.565-1.367l-2.534-2.515zm-4.651-4.616a70.194 70.194 0 004.99-1.748 26.256 26.256 0 01-1.833 4.881l-3.157-3.133zm-.996-10.621c-.21-.508-.729-.812-1.39-.812h-6.71a69.925 69.925 0 00-.454-5.522 68.038 68.038 0 0114.938 4.264c.056.023.114.022.172.034.212 1.344.324 2.72.324 4.122 0 1.503-.138 2.999-.391 4.474-.035.01-.071.006-.105.02a67.917 67.917 0 01-6.988 2.454L43.8 31.695l3.851-3.85c.467-.467.619-1.048.409-1.556zm-22.907 1.122v10.508a68.103 68.103 0 01-5.486-.493 66.766 66.766 0 01.002-17.778 66.75 66.75 0 0117.776-.002c.255 1.93.425 3.875.514 5.833H27.086a1.932 1.932 0 00-1.933 1.932zM2.578 32.848a26.385 26.385 0 01-.387-4.473c0-1.402.112-2.779.324-4.122.057-.013.116-.01.172-.034a68.114 68.114 0 0114.928-4.262 68.71 68.71 0 00-.002 17.159 67.425 67.425 0 01-14.926-4.247c-.036-.015-.073-.011-.109-.021zm51.57-10.887a70.032 70.032 0 00-14.946-4.089A69.258 69.258 0 0035.095 2.82c9.345 2.388 16.706 9.781 19.053 19.141zM32.83 2.35a.964.964 0 00.062.315 67.46 67.46 0 014.249 14.926 68.678 68.678 0 00-17.161.002 68.122 68.122 0 014.262-14.927.969.969 0 00.062-.315C25.691 2.123 27.114 2 28.566 2s2.875.123 4.264.35zm-10.792.469a70.02 70.02 0 00-4.139 15.058 70.054 70.054 0 00-14.916 4.084C5.331 12.6 12.693 5.207 22.038 2.819zM3.082 35.168a69.34 69.34 0 0014.811 4.012 70.036 70.036 0 003.999 14.713c-9.149-2.395-16.373-9.592-18.81-18.725zm21.145 19.219a68.094 68.094 0 01-4.25-14.906c1.715.212 3.441.355 5.176.44v7.074c0 1.018.664 1.482 1.28 1.482.268 0 .672-.087 1.087-.502l3.756-3.85 3.894 3.894a68.25 68.25 0 01-2.266 6.372 26.304 26.304 0 01-8.677-.004zm11.009-.493a69.909 69.909 0 001.519-4.289l2.762 2.762a25.972 25.972 0 01-4.281 1.527zm9.848 1.212L32.69 42.711c-.364-.365-.85-.565-1.367-.565s-1.003.201-1.367.565l-2.808 2.808-.062-18.042h18.103l-2.804 2.804a1.937 1.937 0 00.001 2.733l12.441 12.347-9.743 9.745z"/></svg>