<svg height="512" viewBox="0 0 60 60" width="512" xmlns="http://www.w3.org/2000/svg"><path d="M2.454 43.132A2.968 2.968 0 00.311 46.4l1.7 12.736A1 1 0 003 60h54a1 1 0 00.991-.868l1.7-12.736A3 3 0 0056.657 43l2.412-23.467a4.957 4.957 0 00-3.128-5.162l.1-.4a3.97 3.97 0 00-3.577-4.936l.368-.92A3.005 3.005 0 0049.858 4a2.982 2.982 0 00-2.808-4h-34.1a2.984 2.984 0 00-2.809 4 3 3 0 00-2.973 4.114l.368.92a3.966 3.966 0 00-3.542 5.073 4.993 4.993 0 00-3.966 5.421zm55.015 2.21a.985.985 0 01.238.79L57.324 49H14a1 1 0 000 2h43.058l-.934 7H3.876l-.934-7H9a1 1 0 000-2H2.676l-.383-2.868A1 1 0 013.284 45c57.084 0 53.716-.2 54.185.342zM8.186 23.086a1 1 0 011-1.086H26a1 1 0 011 1v18.438c-.642-.726-.885-.847-4.677-2.854a1.18 1.18 0 01-.641-.812l-.125-1.118a6.1 6.1 0 001.391-2.737c.37-.348.556-.85.5-1.355-.2-1.763-.128-2-.756-2.583l-.244-2.079c-.083-.4-.94-3.9-5.547-3.9-3.327 0-4.93 1.971-4.865 4.236l.214 1.906c-.257.312-.38.712-.345 1.115l.171 1.527c.063.506.338.96.758 1.25a7.886 7.886 0 002.036 2.776l.13 1.185a.655.655 0 01-.391.65l-2.884 1.826A3.249 3.249 0 0010.028 43c-.171 0 .02 1.56-1.842-19.914zm8.806 14.686c-.174-1.553-.123-1.87-.511-2.21A6.1 6.1 0 0114.7 33.3c-.228-.579-.236-.565-.644-.856l-.132-1.18c.51-.593.421-.442.111-3.161 0-.51.19-1 .533-1.376A3.189 3.189 0 0116.9 26c2.961 0 3.509 1.921 3.574 2.216.332 2.963.186 2.613.83 3.211l.128 1.155c-.278.224-.44.561-.442.918a4.116 4.116 0 01-.98 1.882c-.655.713-.544.588-.318 2.613a3.155 3.155 0 001.7 2.357c3.9 2.06 3.94 2.09 4.3 2.648h-13.64c.098-.333.327-.612.634-.773.077-.041.781-.56 2.958-1.868a2.657 2.657 0 001.348-2.587zM12.026 3.366A1 1 0 0112.95 2h34.1a.98.98 0 01.825.44c.354.525.08.97-.154 1.56H12.279zM9.954 6h40.092a1 1 0 01.929 1.371L50.323 9H9.677l-.652-1.629A1 1 0 019.954 6zM7.84 11h44.32a2 2 0 011.94 2.487l-.128.513H6.028l-.128-.51A2 2 0 017.84 11zM5 16h49.1a3 3 0 012.982 3.324L54.646 43H29V23a3 3 0 00-3-3H9.182a3 3 0 00-2.989 3.26L7.909 43H4.451L2.018 19.319A3 3 0 015 16z"/><path d="M34 27h18.181a2.006 2.006 0 001.961-1.608l.6-3A2 2 0 0052.78 20H34a2 2 0 00-2 2v3a2 2 0 002 2zm0-5h18.78l-.6 3c0 1.3 0 1.372 0 0H34zm-1 10h2a1 1 0 000-2h-2a1 1 0 000 2zm19-2H39a1 1 0 000 2h13a1 1 0 000-2zm-19 7h10a1 1 0 000-2H33a1 1 0 000 2zm18-2h-4a1 1 0 000 2h4a1 1 0 000-2z"/></svg>