<svg xmlns="http://www.w3.org/2000/svg" viewBox="0 0 512 512"><path d="M503.917 196.594l-46.833-11.719a216.68 216.68 0 00-8.656-20.688l24.885-41.479a10.667 10.667 0 00-1.604-13.031l-69.385-69.396c-3.458-3.469-8.854-4.115-13.031-1.604l-41.49 24.896a214.812 214.812 0 00-20.677-8.656l-11.72-46.834A10.662 10.662 0 00305.063 0h-98.125a10.663 10.663 0 00-10.344 8.083l-11.719 46.833a215.32 215.32 0 00-20.677 8.656l-41.49-24.896c-4.198-2.5-9.573-1.865-13.031 1.604l-69.385 69.396a10.667 10.667 0 00-1.604 13.031l24.885 41.479a216.058 216.058 0 00-8.656 20.688l-46.834 11.72A10.662 10.662 0 000 206.938v98.125c0 4.896 3.333 9.156 8.083 10.344l46.833 11.719a216.68 216.68 0 008.656 20.688l-24.885 41.479a10.667 10.667 0 001.604 13.031l69.385 69.385c3.438 3.448 8.823 4.104 13.031 1.604l41.479-24.885a216.058 216.058 0 0020.688 8.656l11.719 46.833A10.663 10.663 0 00206.937 512h98.125c4.896 0 9.156-3.333 10.344-8.083l11.719-46.833a216.68 216.68 0 0020.688-8.656l41.479 24.885c4.198 2.51 9.573 1.865 13.031-1.604l69.385-69.385a10.667 10.667 0 001.604-13.031l-24.885-41.479a216.058 216.058 0 008.656-20.688l46.833-11.719a10.663 10.663 0 008.083-10.344v-98.125a10.66 10.66 0 00-8.082-10.344zm-13.25 100.146l-44.396 11.104a10.637 10.637 0 00-7.563 7.063c-3.063 9.479-7.073 19.073-11.917 28.521a10.65 10.65 0 00.344 10.354l23.604 39.344-57.615 57.615-39.333-23.604a10.73 10.73 0 00-10.354-.344c-9.458 4.844-19.052 8.854-28.531 11.917a10.639 10.639 0 00-7.063 7.563l-11.104 44.396H215.26l-11.104-44.396a10.637 10.637 0 00-7.063-7.563c-9.479-3.063-19.073-7.073-28.531-11.917a10.62 10.62 0 00-10.354.344l-39.333 23.604-57.615-57.616 23.604-39.344a10.652 10.652 0 00.344-10.354c-4.844-9.448-8.854-19.042-11.917-28.521a10.639 10.639 0 00-7.563-7.063L21.333 296.74v-81.48l44.396-11.104a10.637 10.637 0 007.563-7.063c3.063-9.479 7.073-19.073 11.917-28.521a10.65 10.65 0 00-.344-10.354L61.26 118.875l57.615-57.625 39.344 23.615c3.167 1.906 7.083 2.052 10.354.344 9.448-4.844 19.042-8.854 28.521-11.917a10.639 10.639 0 007.063-7.563l11.104-44.396h81.479l11.104 44.396a10.637 10.637 0 007.063 7.563c9.479 3.063 19.073 7.073 28.521 11.917 3.26 1.688 7.188 1.542 10.354-.344l39.344-23.615 57.615 57.625-23.604 39.344a10.652 10.652 0 00-.344 10.354c4.844 9.448 8.854 19.042 11.917 28.521a10.639 10.639 0 007.563 7.063l44.396 11.104v81.479z"/><path d="M256 128c-70.583 0-128 57.417-128 128s57.417 128 128 128 128-57.417 128-128-57.417-128-128-128zm0 234.667c-58.813 0-106.667-47.854-106.667-106.667S197.188 149.333 256 149.333 362.667 197.188 362.667 256 314.813 362.667 256 362.667z"/></svg>