<svg xmlns="http://www.w3.org/2000/svg" viewBox="0 0 164 35"><path d="M.35.7v33.6h13.532a15.723 15.723 0 0011.72-4.824A16.464 16.464 0 0030.314 17.5a16.465 16.465 0 00-4.712-11.976A15.723 15.723 0 0013.882.7zm7.733 26.208V8.089h5.8a8.648 8.648 0 016.5 2.568 9.412 9.412 0 012.489 6.84 9.41 9.41 0 01-2.489 6.84 8.646 8.646 0 01-6.5 2.568h-5.8zm34.8-5.952h12.082v-7.3H42.879V8.089H56.17V.7H35.146v33.6h21.265v-7.392H42.879v-5.952zM79.226 34.3L90.245.7h-8.458l-7.491 24.72L66.805.7h-8.457l11.019 33.6zm14.4 0h7.733V.7h-7.733zm38.615-1.416a15.514 15.514 0 006.041-5.688l-6.67-3.84a7.488 7.488 0 01-3.165 3.024 9.874 9.874 0 01-4.664 1.1 9.594 9.594 0 01-7.177-2.736 9.907 9.907 0 01-2.682-7.248 9.908 9.908 0 012.682-7.248 9.594 9.594 0 017.177-2.736 9.914 9.914 0 014.64 1.08 7.6 7.6 0 013.189 3.048l6.67-3.84a15.881 15.881 0 00-6.09-5.688 17.419 17.419 0 00-8.409-2.088 17.12 17.12 0 00-17.592 17.472 17.12 17.12 0 0017.589 17.476 17.519 17.519 0 008.458-2.088zm17.881-11.928h12.082v-7.3h-12.085V8.089h13.29V.7h-21.022v33.6h21.264v-7.392h-13.532v-5.952z"/></svg>