<svg version="1.0" xmlns="http://www.w3.org/2000/svg" width="400" height="400" viewBox="0 0 300 300"><path d="M112.5 51c-20.3 8.7-37.6 16.2-38.3 16.7-.9.5 11.5 7.5 37 21 21.1 11.2 39 20.3 39.8 20.3.8-.1 19.5-9.3 41.5-20.5l40-20.4-3.8-1.6C201.1 55 151.6 35 150.7 35c-.7.1-17.8 7.2-38.2 16zM84 186.7c0 41.1.4 75.3.8 75.9 1.5 2.3 5.3 3.4 11.5 3.4 5 0 7-.5 9.1-2.1l2.6-2V192h84v69.1l2.5 2.4c2.1 2.2 3.3 2.5 9.8 2.5 5.9 0 8-.4 9.8-1.9l2.4-1.9.3-75.1c.1-46.2-.1-75.1-.7-75.1-.5 0-6.1 2.7-12.5 6.1l-11.6 6.1V169h-84v-44.5l-11.1-6c-6.1-3.3-11.5-6.2-12-6.3-.5-.2-.9 32.1-.9 74.5z"/></svg>