<svg xmlns="http://www.w3.org/2000/svg" xmlns:xlink="http://www.w3.org/1999/xlink" xmlns:sketch="http://www.bohemiancoding.com/sketch/ns"><defs>
    <style>
      .cls-1, .cls-2 {
        fill: #343434;
        fill-rule: evenodd;
      }

      .cls-2 {
        stroke: #343434;
        stroke-linejoin: round;
        stroke-opacity: 0.5;
        stroke-width: 1px;
      }
    </style>
  </defs><symbol id="icon-contacts" viewBox="0 0 60 60"><g id="010---Contacts"><path id="Shape" d="m2.454 43.132c-1.4318972.3990049-2.34780079 1.7957259-2.143 3.268l1.7 12.736c.06787434.4944444.48991937.8631471.989.864h54c.5011704-.0001252.9248455-.3712149.991-.868l1.7-12.736c.1157211-.8676508-.1532785-1.7425676-.7364632-2.3953347-.5831847-.652767-1.4223801-1.0182688-2.2975368-1.0006653l2.412-23.467c.2458067-2.2303046-1.0372033-4.3475992-3.128-5.162l.1-.4c.2891858-1.1410888.0570622-2.3516718-.6336916-3.3048618s-1.7688984-1.5506819-2.9433084-1.6311382l.368-.92c.3822677-.95607139.2484097-2.04129617-.3547208-2.87582278-.6031306-.8345266-1.5915457-1.30214437-2.6192792-1.23917722.3323272-.91499085.1971191-1.93459286-.3621999-2.73134366-.5593191-.7967508-1.4723286-1.27033623-2.4458001-1.26865634h-34.1c-.9732926-.00107382-1.885947.4725909-2.4452961 1.26910091-.5593492.79651-.69509387 1.81575956-.3637039 2.73089909-1.02822673-.06522277-2.01798992.4017545-2.62145403 1.23682053-.6034641.83506604-.73619474 1.92138162-.35154597 2.87717947l.368.92c-1.20026912.08001632-2.29935372.70046929-2.98800276 1.6867811-.68864904.9863119-.89242724 2.2318733-.55399724 3.3862189-2.52151669.5148656-4.23863242 2.8619368-3.966 5.421zm55.015 2.21c.1911136.215819.2780914.5045269.238.79l-.383 2.868h-43.324c-.5522847 0-1 .4477153-1 1s.4477153 1 1 1h43.058l-.934 7h-52.248l-.934-7h6.058c.55228475 0 1-.4477153 1-1s-.44771525-1-1-1h-6.324l-.383-2.868c-.03804085-.2856665.04901025-.5738566.23883774-.7906928.18982749-.2168363.46397408-.3412352.75216226-.3413072 57.084 0 53.716-.2 54.185.342zm-49.283-22.256c-.02415194-.2797735.07044298-.5568098.26066062-.7633862.19021763-.2065763.45852725-.3236543.73933938-.3226138h16.814c.5522847 0 1 .4477153 1 1v18.438c-.642-.726-.885-.847-4.677-2.854-.3272506-.1575878-.5636922-.4571052-.641-.812l-.125-1.118c.6894314-.7788202 1.1682643-1.7209953 1.391-2.737.3707326-.3477366.5559955-.8497991.5-1.355-.2-1.763-.128-2-.756-2.583l-.244-2.079c-.083-.4-.94-3.9-5.547-3.9-3.327 0-4.93 1.971-4.865 4.236l.214 1.906c-.2565541.3121587-.3804258.7124977-.345 1.115l.171 1.527c.0626382.5057694.3384756.9606464.758 1.25.465945 1.0639834 1.1611755 2.0119008 2.036 2.776l.13 1.185c.0211504.2777682-.1357046.5385246-.391.65l-2.884 1.826c-.9502156.5092445-1.5859486 1.4566627-1.697 2.529-.171 0 .02 1.56-1.842-19.914zm8.806 14.686c-.174-1.553-.123-1.87-.511-2.21-.7656431-.601098-1.3763167-1.3766981-1.781-2.262-.228-.579-.236-.565-.644-.856l-.132-1.18c.51-.593.421-.442.111-3.161-.0008391-.509215.1893549-1.0002225.533-1.376.6500352-.542237 1.4889866-.8037797 2.332-.727 2.961 0 3.509 1.921 3.574 2.216.332 2.963.186 2.613.83 3.211l.128 1.155c-.2780775.2238099-.4404508.5610468-.442.918-.1565732.7022004-.4944679 1.351096-.98 1.882-.655.713-.544.588-.318 2.613.1495501 1.0154141.7836832 1.8946209 1.7 2.357 3.9 2.06 3.94 2.09 4.3 2.648h-13.64c.0977064-.3330113.3265447-.6120208.634-.773.077-.041.781-.56 2.958-1.868.9248636-.5165135 1.4545481-1.533052 1.348-2.587zm-4.966-34.406c-.1206529-.30675868-.0823822-.65327158.1023063-.92630672.1846885-.27303513.4920677-.43751564.8216937-.43969328h34.1c.3317488-.00243087.6422036.16314503.825.44.354.525.08.97-.154 1.56h-35.442zm-2.072 2.634h40.092c.3318143-.00012183.6420806.16435369.8282135.43904498s.2238896.62382132.1007865.93195502l-.652 1.629h-40.646l-.652-1.629c-.12310314-.3081337-.08534639-.65726373.10078651-.93195502s.49639917-.43916681.82821349-.43904498zm-2.114 5h44.32c.6162545-.0000611 1.1981267.2839764 1.5771598.7698812s.5128982 1.119413.3628402 1.7171188l-.128.513h-47.944l-.128-.51c-.15114802-.5981282-.01779869-1.2325375.36136573-1.719197s.96170395-.7710972 1.57863427-.770803zm-2.84 5h49.1c.8519721.0001286 1.6637071.3624957 2.2326338.9966715.5689266.6341758.8413792 1.4803397.7493662 2.3273285l-2.436 23.676h-25.646v-20c0-1.6568542-1.3431458-3-3-3h-16.818c-.84090333-.0000807-1.6432371.3527682-2.21152507.9725804-.56828796.6198122-.85035322 1.4496803-.77747493 2.2874196l1.716 19.74h-3.458l-2.433-23.681c-.09048993-.8461773.18265215-1.6909708.7514049-2.3239991.56875276-.6330283 1.37959308-.9947196 2.2305951-.9950009z"/><path id="Shape" d="m34 27h18.181c.9525369-.0024323 1.7720146-.6743957 1.961-1.608l.6-3c.1174596-.5876598-.0347914-1.1970223-.4148497-1.6603758s-.9478668-.7318616-1.5471503-.7316242h-18.78c-1.1045695 0-2 .8954305-2 2v3c0 1.1045695.8954305 2 2 2zm0-5h18.78l-.6 3c0 1.3 0 1.372 0 0h-18.18z"/><path id="Shape" d="m33 32h2c.5522847 0 1-.4477153 1-1s-.4477153-1-1-1h-2c-.5522847 0-1 .4477153-1 1s.4477153 1 1 1z"/><path id="Shape" d="m52 30h-13c-.5522847 0-1 .4477153-1 1s.4477153 1 1 1h13c.5522847 0 1-.4477153 1-1s-.4477153-1-1-1z"/><path id="Shape" d="m33 37h10c.5522847 0 1-.4477153 1-1s-.4477153-1-1-1h-10c-.5522847 0-1 .4477153-1 1s.4477153 1 1 1z"/><path id="Shape" d="m51 35h-4c-.5522847 0-1 .4477153-1 1s.4477153 1 1 1h4c.5522847 0 1-.4477153 1-1s-.4477153-1-1-1z"/></g></symbol><symbol id="icon-desktop" viewBox="0 0 548.172 548.172">
<g>
	<path d="M534.75,49.965c-8.945-8.945-19.694-13.422-32.261-13.422H45.681c-12.562,0-23.313,4.477-32.264,13.422
		C4.471,58.913,0,69.663,0,82.226v310.633c0,12.566,4.471,23.315,13.417,32.265c8.951,8.945,19.702,13.414,32.264,13.414h155.318
		c0,7.231-1.524,14.661-4.57,22.269c-3.044,7.614-6.09,14.273-9.136,19.981c-3.042,5.715-4.565,9.897-4.565,12.56
		c0,4.948,1.807,9.24,5.424,12.847c3.615,3.621,7.898,5.435,12.847,5.435h146.179c4.949,0,9.233-1.813,12.848-5.435
		c3.62-3.606,5.427-7.898,5.427-12.847c0-2.468-1.526-6.611-4.571-12.415c-3.046-5.801-6.092-12.566-9.134-20.267
		c-3.046-7.71-4.569-15.085-4.569-22.128h155.318c12.56,0,23.309-4.469,32.254-13.414c8.949-8.949,13.422-19.698,13.422-32.265
		V82.226C548.176,69.663,543.699,58.913,534.75,49.965z M511.627,319.768c0,2.475-0.903,4.613-2.711,6.424
		c-1.81,1.804-3.952,2.707-6.427,2.707H45.681c-2.473,0-4.615-0.903-6.423-2.707c-1.807-1.817-2.712-3.949-2.712-6.424V82.226
		c0-2.475,0.902-4.615,2.712-6.423c1.809-1.805,3.951-2.712,6.423-2.712h456.815c2.471,0,4.617,0.904,6.42,2.712
		c1.808,1.809,2.711,3.949,2.711,6.423V319.768L511.627,319.768z"/>
</g>
<g>
</g>
<g>
</g>
<g>
</g>
<g>
</g>
<g>
</g>
<g>
</g>
<g>
</g>
<g>
</g>
<g>
</g>
<g>
</g>
<g>
</g>
<g>
</g>
<g>
</g>
<g>
</g>
<g>
</g>
</symbol><symbol id="icon-education" viewBox="0 0 512.004 512.004">
<g>
	<g>
		<g>
			<path d="M291.057,242.811c1.51,2.953,4.514,4.659,7.62,4.659c1.297,0,2.628-0.299,3.866-0.93
				c0.503-0.256,50.731-25.771,75.503-33.596c4.489-1.425,6.98-6.221,5.555-10.709c-1.417-4.489-6.178-6.989-10.709-5.572
				c-26.095,8.252-75.981,33.596-78.097,34.671C290.596,233.467,288.924,238.605,291.057,242.811z"/>
			<path d="M298.677,145.071c1.297,0,2.628-0.299,3.866-0.93c0.503-0.256,50.731-25.771,75.503-33.596
				c4.489-1.425,6.98-6.221,5.555-10.709c-1.417-4.489-6.178-6.989-10.709-5.572c-26.095,8.252-75.981,33.596-78.097,34.671
				c-4.198,2.133-5.871,7.27-3.738,11.477C292.567,143.364,295.571,145.071,298.677,145.071z"/>
			<path d="M503.469,128.004c-4.719,0-8.533,3.823-8.533,8.533v332.8c0,14.114-11.486,25.6-25.6,25.6h-204.8v-19.635
				c12.442-4.352,44.851-14.498,76.8-14.498c74.334,0,124.809,16.461,125.312,16.631c2.568,0.853,5.436,0.427,7.68-1.178
				c2.227-1.604,3.541-4.181,3.541-6.921V93.871c0-4.002-2.773-7.467-6.682-8.329c0,0-6.69-1.493-18.125-3.593
				c-4.617-0.853-9.079,2.219-9.933,6.844c-0.853,4.642,2.21,9.088,6.844,9.941c4.361,0.802,8.013,1.51,10.829,2.074v357.188
				c-19.337-5.069-62.276-14.259-119.467-14.259c-37.18,0-73.702,12.211-85.001,16.35c-10.044-4.437-40.405-16.35-77.133-16.35
				c-58.778,0-107.196,9.694-128,14.618V100.475c17.041-4.19,67.371-15.138,128-15.138c31.113,0,57.796,9.685,68.267,14.063v335.804
				c0,3.072,1.655,5.914,4.326,7.424c2.671,1.519,5.965,1.476,8.602-0.111c0.845-0.503,85.393-51.004,160.435-76.015
				c3.49-1.169,5.837-4.42,5.837-8.098V8.537c0-2.799-1.374-5.419-3.678-7.014c-2.287-1.596-5.222-1.963-7.859-0.981
				C346.856,26.15,277.771,69.141,277.079,69.568c-3.994,2.5-5.214,7.765-2.714,11.759c2.492,3.994,7.757,5.214,11.759,2.714
				c0.631-0.401,60.732-37.794,123.477-63.027v331.281c-58.249,20.241-119.066,53.291-145.067,68.087V93.871
				c0-3.234-1.826-6.187-4.719-7.637c-1.468-0.725-36.437-17.963-80.614-17.963c-77.107,0-136.388,16.683-138.88,17.399
				c-3.661,1.041-6.187,4.395-6.187,8.201v375.467c0,2.671,1.263,5.197,3.388,6.81c1.502,1.135,3.311,1.724,5.146,1.724
				c0.785,0,1.57-0.111,2.338-0.333c0.589-0.162,59.597-16.734,134.195-16.734c31.198,0,57.856,9.711,68.267,14.071v20.062h-204.8
				c-14.114,0-25.6-11.486-25.6-25.6v-332.8c0-4.71-3.823-8.533-8.533-8.533s-8.533,3.823-8.533,8.533v332.8
				c0,23.526,19.14,42.667,42.667,42.667h426.667c23.526,0,42.667-19.14,42.667-42.667v-332.8
				C512.002,131.827,508.188,128.004,503.469,128.004z"/>
			<path d="M291.057,191.611c1.51,2.953,4.514,4.659,7.62,4.659c1.297,0,2.628-0.299,3.866-0.93
				c0.503-0.256,50.731-25.771,75.503-33.596c4.489-1.425,6.98-6.221,5.555-10.709c-1.417-4.489-6.178-6.989-10.709-5.572
				c-26.095,8.252-75.981,33.596-78.097,34.671C290.596,182.267,288.924,187.405,291.057,191.611z"/>
			<path d="M291.057,294.011c1.51,2.953,4.514,4.659,7.62,4.659c1.297,0,2.628-0.299,3.866-0.93
				c0.503-0.256,50.731-25.771,75.503-33.596c4.489-1.425,6.98-6.221,5.555-10.709c-1.417-4.489-6.178-6.989-10.709-5.572
				c-26.095,8.252-75.981,33.596-78.097,34.671C290.596,284.667,288.924,289.805,291.057,294.011z"/>
			<path d="M206.748,158.366c-52.693-12.365-112.572,3.388-115.089,4.062c-4.548,1.22-7.253,5.896-6.033,10.453
				c1.024,3.814,4.471,6.323,8.235,6.323c0.734,0,1.476-0.094,2.219-0.29c0.572-0.162,58.223-15.326,106.778-3.934
				c4.565,1.067,9.182-1.775,10.257-6.366C214.189,164.032,211.339,159.441,206.748,158.366z"/>
			<path d="M206.748,209.566c-52.693-12.356-112.572,3.388-115.089,4.062c-4.548,1.22-7.253,5.897-6.033,10.453
				c1.024,3.814,4.471,6.323,8.235,6.323c0.734,0,1.476-0.094,2.219-0.29c0.572-0.162,58.223-15.326,106.778-3.934
				c4.565,1.067,9.182-1.775,10.257-6.366C214.189,215.232,211.339,210.641,206.748,209.566z"/>
			<path d="M291.057,345.211c1.51,2.953,4.514,4.659,7.62,4.659c1.297,0,2.628-0.299,3.866-0.93
				c0.503-0.256,50.731-25.771,75.503-33.596c4.489-1.425,6.98-6.221,5.555-10.709c-1.417-4.488-6.178-6.989-10.709-5.572
				c-26.095,8.252-75.981,33.596-78.097,34.671C290.596,335.867,288.924,341.005,291.057,345.211z"/>
			<path d="M206.748,260.766c-52.693-12.356-112.572,3.379-115.089,4.062c-4.548,1.22-7.253,5.897-6.033,10.453
				c1.024,3.814,4.471,6.332,8.235,6.332c0.734,0,1.476-0.102,2.219-0.299c0.572-0.162,58.223-15.326,106.778-3.934
				c4.565,1.067,9.182-1.775,10.257-6.366C214.189,266.432,211.339,261.841,206.748,260.766z"/>
			<path d="M206.748,363.166c-52.693-12.365-112.572,3.388-115.089,4.062c-4.548,1.22-7.253,5.897-6.033,10.453
				c1.024,3.814,4.471,6.332,8.235,6.332c0.734,0,1.476-0.102,2.219-0.299c0.572-0.162,58.223-15.326,106.778-3.934
				c4.565,1.058,9.182-1.775,10.257-6.366C214.189,368.832,211.339,364.241,206.748,363.166z"/>
			<path d="M206.748,311.966c-52.693-12.365-112.572,3.379-115.089,4.062c-4.548,1.22-7.253,5.897-6.033,10.453
				c1.024,3.814,4.471,6.332,8.235,6.332c0.734,0,1.476-0.102,2.219-0.299c0.572-0.162,58.223-15.326,106.778-3.934
				c4.565,1.067,9.182-1.775,10.257-6.366C214.189,317.632,211.339,313.041,206.748,311.966z"/>
		</g>
	</g>
</g>
<g>
</g>
<g>
</g>
<g>
</g>
<g>
</g>
<g>
</g>
<g>
</g>
<g>
</g>
<g>
</g>
<g>
</g>
<g>
</g>
<g>
</g>
<g>
</g>
<g>
</g>
<g>
</g>
<g>
</g>
</symbol><symbol id="icon-email" viewBox="0 0 512 512">
<g>
	<g>
		<path d="M467,61H45C20.218,61,0,81.196,0,106v300c0,24.72,20.128,45,45,45h422c24.72,0,45-20.128,45-45V106
			C512,81.28,491.872,61,467,61z M460.786,91L256.954,294.833L51.359,91H460.786z M30,399.788V112.069l144.479,143.24L30,399.788z
			 M51.213,421l144.57-144.57l50.657,50.222c5.864,5.814,15.327,5.795,21.167-0.046L317,277.213L460.787,421H51.213z M482,399.787
			L338.213,256L482,112.212V399.787z"/>
	</g>
</g>
<g>
</g>
<g>
</g>
<g>
</g>
<g>
</g>
<g>
</g>
<g>
</g>
<g>
</g>
<g>
</g>
<g>
</g>
<g>
</g>
<g>
</g>
<g>
</g>
<g>
</g>
<g>
</g>
<g>
</g>
</symbol><symbol id="icon-github" viewBox="0 0 438.549 438.549">
<g>
	<path d="M409.132,114.573c-19.608-33.596-46.205-60.194-79.798-79.8C295.736,15.166,259.057,5.365,219.271,5.365
		c-39.781,0-76.472,9.804-110.063,29.408c-33.596,19.605-60.192,46.204-79.8,79.8C9.803,148.168,0,184.854,0,224.63
		c0,47.78,13.94,90.745,41.827,128.906c27.884,38.164,63.906,64.572,108.063,79.227c5.14,0.954,8.945,0.283,11.419-1.996
		c2.475-2.282,3.711-5.14,3.711-8.562c0-0.571-0.049-5.708-0.144-15.417c-0.098-9.709-0.144-18.179-0.144-25.406l-6.567,1.136
		c-4.187,0.767-9.469,1.092-15.846,1c-6.374-0.089-12.991-0.757-19.842-1.999c-6.854-1.231-13.229-4.086-19.13-8.559
		c-5.898-4.473-10.085-10.328-12.56-17.556l-2.855-6.57c-1.903-4.374-4.899-9.233-8.992-14.559
		c-4.093-5.331-8.232-8.945-12.419-10.848l-1.999-1.431c-1.332-0.951-2.568-2.098-3.711-3.429c-1.142-1.331-1.997-2.663-2.568-3.997
		c-0.572-1.335-0.098-2.43,1.427-3.289c1.525-0.859,4.281-1.276,8.28-1.276l5.708,0.853c3.807,0.763,8.516,3.042,14.133,6.851
		c5.614,3.806,10.229,8.754,13.846,14.842c4.38,7.806,9.657,13.754,15.846,17.847c6.184,4.093,12.419,6.136,18.699,6.136
		c6.28,0,11.704-0.476,16.274-1.423c4.565-0.952,8.848-2.383,12.847-4.285c1.713-12.758,6.377-22.559,13.988-29.41
		c-10.848-1.14-20.601-2.857-29.264-5.14c-8.658-2.286-17.605-5.996-26.835-11.14c-9.235-5.137-16.896-11.516-22.985-19.126
		c-6.09-7.614-11.088-17.61-14.987-29.979c-3.901-12.374-5.852-26.648-5.852-42.826c0-23.035,7.52-42.637,22.557-58.817
		c-7.044-17.318-6.379-36.732,1.997-58.24c5.52-1.715,13.706-0.428,24.554,3.853c10.85,4.283,18.794,7.952,23.84,10.994
		c5.046,3.041,9.089,5.618,12.135,7.708c17.705-4.947,35.976-7.421,54.818-7.421s37.117,2.474,54.823,7.421l10.849-6.849
		c7.419-4.57,16.18-8.758,26.262-12.565c10.088-3.805,17.802-4.853,23.134-3.138c8.562,21.509,9.325,40.922,2.279,58.24
		c15.036,16.18,22.559,35.787,22.559,58.817c0,16.178-1.958,30.497-5.853,42.966c-3.9,12.471-8.941,22.457-15.125,29.979
		c-6.191,7.521-13.901,13.85-23.131,18.986c-9.232,5.14-18.182,8.85-26.84,11.136c-8.662,2.286-18.415,4.004-29.263,5.146
		c9.894,8.562,14.842,22.077,14.842,40.539v60.237c0,3.422,1.19,6.279,3.572,8.562c2.379,2.279,6.136,2.95,11.276,1.995
		c44.163-14.653,80.185-41.062,108.068-79.226c27.88-38.161,41.825-81.126,41.825-128.906
		C438.536,184.851,428.728,148.168,409.132,114.573z"/>
</g>
<g>
</g>
<g>
</g>
<g>
</g>
<g>
</g>
<g>
</g>
<g>
</g>
<g>
</g>
<g>
</g>
<g>
</g>
<g>
</g>
<g>
</g>
<g>
</g>
<g>
</g>
<g>
</g>
<g>
</g>
</symbol><symbol id="icon-go-to-web" viewBox="0 0 57.132 57.132">
<path d="M53.707,41.526c2.113-4.032,3.234-8.57,3.234-13.151C56.941,12.729,44.212,0,28.566,0S0.191,12.729,0.191,28.375
	S12.919,56.75,28.566,56.75c4.376,0,8.56-0.976,12.452-2.882l2.699,2.699c0.365,0.364,0.851,0.564,1.367,0.564
	s1.002-0.2,1.367-0.565l9.79-9.791c0.364-0.364,0.565-0.85,0.565-1.367c0-0.518-0.201-1.003-0.565-1.367L53.707,41.526z
	 M49.056,36.91c1.683-0.519,3.349-1.103,4.99-1.748c-0.447,1.685-1.063,3.32-1.833,4.881L49.056,36.91z M48.06,26.289
	c-0.21-0.508-0.729-0.812-1.39-0.812h-6.71c-0.081-1.851-0.228-3.694-0.454-5.522c5.067,0.84,10.076,2.249,14.938,4.264
	c0.056,0.023,0.114,0.022,0.172,0.034c0.212,1.344,0.324,2.72,0.324,4.122c0,1.503-0.138,2.999-0.391,4.474
	c-0.035,0.01-0.071,0.006-0.105,0.02c-2.275,0.942-4.626,1.767-6.988,2.454L43.8,31.695l3.851-3.85
	C48.118,27.378,48.27,26.797,48.06,26.289z M25.153,27.411v10.508c-1.84-0.093-3.67-0.253-5.486-0.493
	c-0.792-5.905-0.791-11.873,0.002-17.778c5.904-0.793,11.871-0.794,17.776-0.002c0.255,1.93,0.425,3.875,0.514,5.833H27.086
	C26.02,25.477,25.153,26.344,25.153,27.411z M2.578,32.848c-0.25-1.455-0.387-2.948-0.387-4.473c0-1.402,0.112-2.779,0.324-4.122
	c0.057-0.013,0.116-0.01,0.172-0.034c4.859-2.013,9.864-3.421,14.928-4.262c-0.718,5.702-0.718,11.457-0.002,17.159
	c-5.109-0.837-10.105-2.25-14.926-4.247C2.651,32.854,2.614,32.858,2.578,32.848z M54.148,21.961
	c-4.876-1.929-9.882-3.297-14.946-4.089c-0.796-5.146-2.168-10.182-4.107-15.052C44.44,5.208,51.801,12.601,54.148,21.961z
	 M32.83,2.35c0.007,0.106,0.019,0.212,0.062,0.315c1.997,4.822,3.412,9.818,4.249,14.926c-5.703-0.717-11.458-0.716-17.161,0.002
	c0.841-5.063,2.249-10.068,4.262-14.927c0.043-0.103,0.055-0.21,0.062-0.315C25.691,2.123,27.114,2,28.566,2
	S31.441,2.123,32.83,2.35z M22.038,2.819c-1.955,4.911-3.339,9.955-4.139,15.058c-5.054,0.793-10.05,2.159-14.916,4.084
	C5.331,12.6,12.693,5.207,22.038,2.819z M3.082,35.168c4.795,1.887,9.749,3.229,14.811,4.012c0.779,4.983,2.119,9.91,3.999,14.713
	C12.743,51.498,5.519,44.301,3.082,35.168z M24.227,54.387c-2.007-4.853-3.412-9.85-4.25-14.906c1.715,0.212,3.441,0.355,5.176,0.44
	v7.074c0,1.018,0.664,1.482,1.28,1.482c0.268,0,0.672-0.087,1.087-0.502l3.756-3.85l3.894,3.894c-0.65,2.157-1.409,4.3-2.266,6.372
	c-1.42,0.234-2.866,0.358-4.337,0.358C27.088,54.75,25.639,54.622,24.227,54.387z M35.236,53.894
	c0.552-1.411,1.059-2.842,1.519-4.289l2.762,2.762C38.127,53.004,36.699,53.513,35.236,53.894z M45.084,55.106L32.69,42.711
	c-0.364-0.365-0.85-0.565-1.367-0.565s-1.003,0.201-1.367,0.565l-2.808,2.808l-0.062-18.042l18.103,0l-2.804,2.804
	c-0.752,0.753-0.752,1.979,0.001,2.733l12.441,12.347L45.084,55.106z"/>
<g>
</g>
<g>
</g>
<g>
</g>
<g>
</g>
<g>
</g>
<g>
</g>
<g>
</g>
<g>
</g>
<g>
</g>
<g>
</g>
<g>
</g>
<g>
</g>
<g>
</g>
<g>
</g>
<g>
</g>
</symbol><symbol id="icon-mobile" viewBox="0 0 365.449 365.449">
<g>
	<path d="M281.507,10.85C274.279,3.614,265.71,0,255.813,0H109.637c-9.9,0-18.464,3.617-25.697,10.85
		c-7.233,7.229-10.85,15.796-10.85,25.693v292.361c0,9.896,3.617,18.462,10.85,25.693c7.233,7.234,15.797,10.852,25.697,10.852
		h146.176c9.896,0,18.466-3.621,25.693-10.852c7.234-7.231,10.852-15.797,10.852-25.693V36.543
		C292.358,26.646,288.745,18.083,281.507,10.85z M159.885,36.543h45.685c3.046,0,4.565,1.523,4.565,4.569
		c0,3.045-1.52,4.57-4.565,4.57h-45.685c-3.045,0-4.568-1.525-4.568-4.57C155.316,38.066,156.839,36.543,159.885,36.543z
		 M198.861,345.036c-4.476,4.469-9.852,6.707-16.135,6.707c-6.28,0-11.656-2.238-16.13-6.707c-4.474-4.477-6.711-9.856-6.711-16.132
		c0-6.283,2.24-11.66,6.711-16.133c4.471-4.469,9.851-6.714,16.13-6.714c6.284,0,11.66,2.245,16.135,6.714
		c4.473,4.473,6.708,9.85,6.708,16.133S203.331,340.56,198.861,345.036z M264.954,283.225c0,2.471-0.903,4.62-2.714,6.424
		c-1.813,1.807-3.949,2.707-6.42,2.707H109.637c-2.474,0-4.615-0.903-6.423-2.707s-2.712-3.953-2.712-6.424V82.229
		c0-2.474,0.903-4.617,2.712-6.423c1.809-1.805,3.949-2.714,6.423-2.714h146.176c2.478,0,4.616,0.905,6.427,2.714
		c1.811,1.807,2.71,3.949,2.71,6.423v200.995H264.954z"/>
</g>
<g>
</g>
<g>
</g>
<g>
</g>
<g>
</g>
<g>
</g>
<g>
</g>
<g>
</g>
<g>
</g>
<g>
</g>
<g>
</g>
<g>
</g>
<g>
</g>
<g>
</g>
<g>
</g>
<g>
</g>
</symbol><symbol id="icon-portfolio" viewBox="0 -31 512 512"><path d="m497.09375 60.003906c-.03125 0-.0625-.003906-.09375-.003906h-136v-15c0-24.8125-20.1875-45-45-45h-120c-24.8125 0-45 20.1875-45 45v15h-136c-8.351562 0-15 6.84375-15 15v330c0 24.8125 20.1875 45 45 45h422c24.8125 0 45-20.1875 45-45v-329.683594c0-.019531 0-.039062 0-.058594-.574219-9.851562-6.632812-15.199218-14.90625-15.253906zm-316.09375-15.003906c0-8.269531 6.730469-15 15-15h120c8.269531 0 15 6.730469 15 15v15h-150zm295.1875 45-46.582031 139.742188c-2.042969 6.136718-7.761719 10.257812-14.226563 10.257812h-84.378906v-15c0-8.285156-6.714844-15-15-15h-120c-8.285156 0-15 6.714844-15 15v15h-84.378906c-6.464844 0-12.183594-4.121094-14.226563-10.257812l-46.582031-139.742188zm-175.1875 150v30h-90v-30zm181 165c0 8.269531-6.730469 15-15 15h-422c-8.269531 0-15-6.730469-15-15v-237.566406l23.933594 71.796875c6.132812 18.40625 23.289062 30.769531 42.6875 30.769531h84.378906v15c0 8.285156 6.714844 15 15 15h120c8.285156 0 15-6.714844 15-15v-15h84.378906c19.398438 0 36.554688-12.363281 42.6875-30.769531l23.933594-71.796875zm0 0"/></symbol><symbol id="icon-tablet" viewBox="0 0 401.991 401.991">
<g>
	<path d="M352.029,13.418C343.077,4.471,332.332,0,319.766,0H82.223C69.66,0,58.906,4.471,49.959,13.418
		c-8.945,8.949-13.418,19.7-13.418,32.264v310.633c0,12.566,4.473,23.309,13.418,32.261c8.947,8.949,19.701,13.415,32.264,13.415
		h237.542c12.566,0,23.312-4.466,32.264-13.415c8.946-8.952,13.422-19.701,13.422-32.261V45.683
		C365.451,33.118,360.965,22.364,352.029,13.418z M213.843,378.299c-3.613,3.614-7.898,5.421-12.849,5.421
		c-4.952,0-9.233-1.807-12.85-5.421c-3.617-3.62-5.424-7.904-5.424-12.847c0-4.948,1.807-9.239,5.424-12.847
		c3.621-3.62,7.902-5.434,12.85-5.434c4.95,0,9.235,1.813,12.849,5.434c3.614,3.607,5.428,7.898,5.428,12.847
		C219.271,370.395,217.457,374.676,213.843,378.299z M328.902,319.767c0,2.478-0.91,4.613-2.71,6.427
		c-1.813,1.814-3.949,2.711-6.427,2.711H82.223c-2.474,0-4.615-0.904-6.423-2.711s-2.712-3.949-2.712-6.427V45.683
		c0-2.475,0.903-4.617,2.712-6.424c1.809-1.809,3.949-2.712,6.423-2.712h237.542c2.478,0,4.613,0.9,6.427,2.712
		c1.807,1.807,2.71,3.949,2.71,6.424V319.767z"/>
</g>
<g>
</g>
<g>
</g>
<g>
</g>
<g>
</g>
<g>
</g>
<g>
</g>
<g>
</g>
<g>
</g>
<g>
</g>
<g>
</g>
<g>
</g>
<g>
</g>
<g>
</g>
<g>
</g>
<g>
</g>
</symbol><symbol id="icon-tech" viewBox="0 0 512 512">
<g>
	<g>
		<g>
			<path d="M503.917,196.594l-46.833-11.719c-2.469-6.906-5.365-13.823-8.656-20.688l24.885-41.479
				c2.521-4.198,1.854-9.573-1.604-13.031l-69.385-69.396c-3.458-3.469-8.854-4.115-13.031-1.604l-41.49,24.896
				c-6.854-3.292-13.771-6.188-20.677-8.656L315.406,8.083C314.219,3.333,309.958,0,305.063,0h-98.125
				c-4.896,0-9.156,3.333-10.344,8.083l-11.719,46.833c-6.906,2.469-13.823,5.365-20.677,8.656l-41.49-24.896
				c-4.198-2.5-9.573-1.865-13.031,1.604l-69.385,69.396c-3.458,3.458-4.125,8.833-1.604,13.031l24.885,41.479
				c-3.292,6.865-6.188,13.781-8.656,20.688L8.083,196.594C3.333,197.781,0,202.042,0,206.938v98.125
				c0,4.896,3.333,9.156,8.083,10.344l46.833,11.719c2.469,6.906,5.365,13.823,8.656,20.688l-24.885,41.479
				c-2.521,4.198-1.854,9.573,1.604,13.031l69.385,69.385c3.438,3.448,8.823,4.104,13.031,1.604l41.479-24.885
				c6.865,3.292,13.781,6.188,20.688,8.656l11.719,46.833c1.188,4.75,5.448,8.083,10.344,8.083h98.125
				c4.896,0,9.156-3.333,10.344-8.083l11.719-46.833c6.906-2.469,13.823-5.365,20.688-8.656l41.479,24.885
				c4.198,2.51,9.573,1.865,13.031-1.604l69.385-69.385c3.458-3.458,4.125-8.833,1.604-13.031l-24.885-41.479
				c3.292-6.865,6.188-13.781,8.656-20.688l46.833-11.719c4.75-1.188,8.083-5.448,8.083-10.344v-98.125
				C512,202.042,508.667,197.781,503.917,196.594z M490.667,296.74l-44.396,11.104c-3.573,0.885-6.438,3.563-7.563,7.063
				c-3.063,9.479-7.073,19.073-11.917,28.521c-1.688,3.271-1.552,7.188,0.344,10.354l23.604,39.344l-57.615,57.615l-39.333-23.604
				c-3.156-1.875-7.052-2.021-10.354-0.344c-9.458,4.844-19.052,8.854-28.531,11.917c-3.5,1.125-6.177,3.99-7.063,7.563
				l-11.104,44.396H215.26l-11.104-44.396c-0.885-3.573-3.563-6.438-7.063-7.563c-9.479-3.063-19.073-7.073-28.531-11.917
				c-3.292-1.698-7.208-1.552-10.354,0.344l-39.333,23.604L61.26,393.125l23.604-39.344c1.896-3.167,2.031-7.083,0.344-10.354
				c-4.844-9.448-8.854-19.042-11.917-28.521c-1.125-3.5-3.99-6.177-7.563-7.063L21.333,296.74V215.26l44.396-11.104
				c3.573-0.885,6.438-3.563,7.563-7.063c3.063-9.479,7.073-19.073,11.917-28.521c1.688-3.271,1.552-7.188-0.344-10.354
				L61.26,118.875l57.615-57.625l39.344,23.615c3.167,1.906,7.083,2.052,10.354,0.344c9.448-4.844,19.042-8.854,28.521-11.917
				c3.5-1.125,6.177-3.99,7.063-7.563l11.104-44.396h81.479l11.104,44.396c0.885,3.573,3.563,6.438,7.063,7.563
				c9.479,3.063,19.073,7.073,28.521,11.917c3.26,1.688,7.188,1.542,10.354-0.344l39.344-23.615l57.615,57.625l-23.604,39.344
				c-1.896,3.167-2.031,7.083-0.344,10.354c4.844,9.448,8.854,19.042,11.917,28.521c1.125,3.5,3.99,6.177,7.563,7.063l44.396,11.104
				V296.74z"/>
			<path d="M256,128c-70.583,0-128,57.417-128,128s57.417,128,128,128s128-57.417,128-128S326.583,128,256,128z M256,362.667
				c-58.813,0-106.667-47.854-106.667-106.667S197.188,149.333,256,149.333S362.667,197.188,362.667,256
				S314.813,362.667,256,362.667z"/>
		</g>
	</g>
</g>
<g>
</g>
<g>
</g>
<g>
</g>
<g>
</g>
<g>
</g>
<g>
</g>
<g>
</g>
<g>
</g>
<g>
</g>
<g>
</g>
<g>
</g>
<g>
</g>
<g>
</g>
<g>
</g>
<g>
</g>
</symbol><symbol id="logo-css3" viewBox="0 0 470.699 470.699">
<path d="M426.981,0H43.701C34.52,0,27.632,7.769,28.442,16.949L63.45,409.254c0.811,9.173,8.745,18.774,17.644,21.253
	l138.006,38.335c8.887,2.463,23.413,2.479,32.313,0.032l138.177-38.281c8.901-2.472,16.835-11.986,17.645-21.175l35.023-392.469
	C443.068,7.769,436.209,0,426.981,0z M360.51,141.611c-0.006,0.06-0.053,0.107-0.112,0.117c-0.06,0.01-0.118-0.021-0.144-0.077
	L252.13,185.96c-1.54,0.631-2.418,2.264-2.098,3.897c0.322,1.633,1.754,2.811,3.419,2.811h84.103c4.474,0,8.736,1.9,11.728,5.227
	c2.991,3.327,4.429,7.768,3.954,12.216l-13.141,123.273c-0.645,6.048-4.709,11.186-10.447,13.205l-89.269,31.41
	c-3.362,1.184-7.027,1.193-10.397,0.025l-88.852-30.778c-5.773-2-9.871-7.153-10.52-13.228l-5.957-55.828
	c-0.313-2.931,0.634-5.857,2.604-8.048c1.971-2.192,4.779-3.444,7.727-3.444h24.725c5.313,0,9.769,4.007,10.331,9.289l3.655,34.316
	l61.521,21.385l61.803-21.58l7.559-71.17H129.835c-5.297,0-9.746-3.985-10.327-9.25l-3.327-30.164
	c-0.508-4.601,2.088-8.982,6.366-10.745l111.837-46.109c1.269-0.523,1.99-1.868,1.724-3.214c-0.267-1.345-1.446-2.314-2.817-2.314
	H115.542c-3.545,0-6.518-2.677-6.888-6.201l-3.406-32.421c-0.205-1.951,0.428-3.898,1.741-5.357
	c1.313-1.458,3.184-2.291,5.146-2.291h246.379c1.973,0,3.852,0.842,5.166,2.313c1.314,1.472,1.938,3.434,1.715,5.394L360.51,141.611
	z"/>
<g>
</g>
<g>
</g>
<g>
</g>
<g>
</g>
<g>
</g>
<g>
</g>
<g>
</g>
<g>
</g>
<g>
</g>
<g>
</g>
<g>
</g>
<g>
</g>
<g>
</g>
<g>
</g>
<g>
</g>
</symbol><symbol id="logo-device" viewBox="0 0 164 35">
  <path d="m0.35 0.7v33.6h13.532a15.723 15.723 0 0 0 11.72-4.824 16.464 16.464 0 0 0 4.712-11.976 16.465 16.465 0 0 0-4.712-11.976 15.723 15.723 0 0 0-11.72-4.824zm7.733 26.208v-18.819h5.8a8.648 8.648 0 0 1 6.5 2.568 9.412 9.412 0 0 1 2.489 6.84 9.41 9.41 0 0 1-2.489 6.84 8.646 8.646 0 0 1-6.5 2.568h-5.8zm34.8-5.952h12.082v-7.3h-12.086v-5.567h13.291v-7.389h-21.024v33.6h21.265v-7.392h-13.532v-5.952zm36.343 13.344 11.019-33.6h-8.458l-7.491 24.72-7.491-24.72h-8.457l11.019 33.6zm14.4 0h7.733v-33.6h-7.733zm38.615-1.416a15.514 15.514 0 0 0 6.041-5.688l-6.67-3.84a7.488 7.488 0 0 1-3.165 3.024 9.874 9.874 0 0 1-4.664 1.1 9.594 9.594 0 0 1-7.177-2.736 9.907 9.907 0 0 1-2.682-7.248 9.908 9.908 0 0 1 2.682-7.248 9.594 9.594 0 0 1 7.177-2.736 9.914 9.914 0 0 1 4.64 1.08 7.6 7.6 0 0 1 3.189 3.048l6.67-3.84a15.881 15.881 0 0 0-6.09-5.688 17.419 17.419 0 0 0-8.409-2.088 17.12 17.12 0 0 0-17.592 17.472 17.12 17.12 0 0 0 17.589 17.476 17.519 17.519 0 0 0 8.458-2.088zm17.881-11.928h12.082v-7.3h-12.085v-5.567h13.29v-7.389h-21.022v33.6h21.264v-7.392h-13.532v-5.952z"/>
</symbol><symbol id="logo-gllacy" viewBox="0 0 154 64"><g><path d="M59.292 42.755c-.833-.25-2.153.373-2.153.373s-3.027 2.513-17.84-.378c-10.908-2.129-16.583-1.917-16.583-1.917s1.833-12.5 1.333-16c0 0 0-.917-1.083-.917s-1.75.417-1.75 1 .167 4.417-.25 7.083c0 0-1.417 4.251-6.167 3.917s-5.75-3.75-6.167-6.083-.666-8.833.584-11.5c0 0 7.167.25 11.667-3.583s4.25-7.167 2.083-8.583S15.883 5 12.049 8.5s-5.083 7-5.083 7-5.625-1.208-4.333-7.083C3.982 2.277 12.393 3 12.393 3c1.75.333 1.823.5 2.406-.083s1-2.083-1.75-2.167S2.049 2.021.466 7.5c-1.685 5.828 1.435 9.997 5.622 10.643 0 0-2.288 10.107.545 15.107s6.94 4.917 8.595 4.917 4.572-.916 5.405-2.25c0 0-.393 3.581-.724 4.88 0 0-6.935-.095-9.109 1.036-3.688 1.917-2.917 6.48-1.5 8.104 1.204 1.38 4.812 2.125 7.417.896 2.705-1.277 4.865-3.739 5.549-7.697 0 0 6.368-.469 12.534 1.364s14.756 3.556 17.34 3.556 8.046-.738 8.327-2.889c.186-1.438-.342-2.162-1.175-2.412zM15.862 9.328s3.281-2.5 4.844-.938c0 0 1.25 1.281.094 2.812-.656.869-2.396 3.589-10.656 4.938-.001.001 2.593-4.562 5.718-6.812zm.265 38.906s-4.531 2.469-5.047-.875c-.333-2.158.89-3.18 1.687-3.57s1.875-.879 6.579-.711c0 0 0 3.328-3.219 5.156z"/><path d="M73.576 24.477l-.002 6.77c-.007.038-.019.075-.021.115-.035.931-.418 1.734-.861 2.537a5.56 5.56 0 0 1-1.18 1.463c-.533.469-.877-.564-1.078-.985-1.391-2.915-.726-6.812-.187-9.862.257-1.454-2.706-1.077-2.936.222-.334 1.888-.869 5.118-.547 7.906-.587.101-1.167.366-1.341.737-.511 1.088-2.009 4.704-3.833 3.258-1.319-1.046-1.461-3.743-1.6-5.268-.191-2.111.154-4.267.816-6.266-.058.173 1.14-2.823 1.67-1.703.326.69.032 2.641-.608 3.122-1.571 1.182.875 1.67 1.824.956 1.802-1.356 3.05-5.708-.074-6.232-3.464-.581-5.438 2.923-6.163 5.697-.335 1.279-.563 3.074-.504 4.886-.481.832-2.097 3.533-3.047 4.026-1.125.584-1.104-.229-1.062-.75s.542-5.146.813-8.271c.175-2.014-.062-2.771-.5-3.646s-3.994-2.825-7.146.833c-2.183 2.534-2.912 4.927-3.08 7.054-.213.425-.443.873-.71 1.362-1.5 2.75-3.384 3.909-4.062 2-.594-1.672-.906-3.703-.75-6.188.005-.088 3.5-5 5.062-11.75s1.25-10.062.438-10.625-4.25-1.938-6.312 6.25c-1.523 6.047-2.137 12.5-1.565 17.879a41.603 41.603 0 0 1-1.229 2.434c-1.5 2.75-3.384 3.909-4.062 2-.594-1.672-.906-3.703-.75-6.188.005-.088 3.5-5 5.062-11.75s1.25-10.062.438-10.625-4.25-1.938-6.312 6.25-2.465 17.126-.5 23.125c0 0 1.081 3.375 3.103 3.125 1.671-.207 3.656-1.846 4.829-4.906.144.615.301 1.215.487 1.781 0 0 1.081 3.375 3.103 3.125 1.376-.17 2.964-1.32 4.14-3.423.711 1.839 2.239 3.34 4.213 2.985 2.667-.479 3.218-1.932 3.218-1.932s-.051 2.383 1.657 2.383c1.525 0 2.729-.889 3.938-3.159.409-.77.642-1.218.773-1.481.356 2.144 1.241 4.055 3.018 4.83 2.976 1.298 5.62-1.172 7.167-3.608.473 1.199 1.24 2.156 2.461 2.616 1.338.505 2.659.013 3.772-.928-.005 1.173-.016 2.346-.026 3.519-.584.001-1.239.143-1.547.415-3.203 2.825-4.598 6.241-4.195 10.521.233 2.48 2.576 3.597 4.725 2.662 3.101-1.35 3.57-6.021 3.83-8.836.625-6.829.139-13.939.139-20.791 0-1.293-2.906-.702-2.906.329zM30.252 13.281c.688-2.656 1.329-3.719 1.954-3.719s.938.719.469 3-1.987 8.626-4.094 12.75c0 0 .983-9.374 1.671-12.031zm8.418 0c.688-2.656 1.329-3.719 1.954-3.719s.938.719.469 3-1.987 8.626-4.094 12.75c0 0 .984-9.374 1.671-12.031zm12.859 12.427c-.074.58-.459 4.292-.959 6.292s-.953 2.78-2.583 3.438c-1.704.688-2.438-1.418-2.438-1.418-1.146-3.208.396-6.042 1.667-7.919s2.573-2.096 3.312-1.955a1.36 1.36 0 0 1 1.001 1.562zm21.972 18.056c-.038 2.683-.381 5.377-1.579 7.81-.701.146-1.029-.117-1.239-1.237a10.734 10.734 0 0 1 .049-3.251c.24-2.021 1.382-3.736 2.783-5.153-.007.61-.005 1.22-.014 1.831zM92.301 21.649c-2.541-1.229-4.811-3.29-5.715-6-1.279-3.827 2.928-6.647 6.275-6.474 3.488.181 5.137 3.625 4.967 6.709-.061 1.095-.748 3.557-2.096 2.277-.951-.906-1.369-2.375-1.566-3.632-.191-1.21-3.1-.495-2.898.776.578 3.657 4.527 7.689 7.898 3.863 3.014-3.418 1.656-9.462-2.574-11.233-4.523-1.893-10.135.077-12.529 4.327-2.732 4.85 2.748 9.598 6.629 11.321 6.225 3.338 6.455 14.054-1.818 14.126-3.43.03-6.619-2.438-7.693-5.609-.572-1.688-.279-7.553 2.014-8.003 1.807-.354 1.311-2.04-.453-1.693-3.713.727-5.08 5.515-4.721 8.858.576 5.341 5.578 8.339 10.631 8.295 4.682-.041 8.654-2.929 9.625-7.549.938-4.482-1.912-8.768-5.976-10.359z"/><path d="M110.881 37.532c-2.855-1.552-1.223-7.563-.791-9.875.279-1.492 1.555-3.794-.494-4.296-2.385-.584-5.223 1.687-7.277 3.858.012-2.506.17-4.999.553-7.478 3.088-1.576 5.4-3.821 7.182-7.395 1.295-2.604 1.941-7.971-2.461-6.422-3.986 1.403-5.377 6.017-6.619 9.688a29.258 29.258 0 0 0-1.094 4.378c-.398.16-.803.312-1.219.44-1.658.512-1.441 1.407.238.89.275-.085.543-.173.809-.263-.793 5.612-.256 11.49.248 17.02.049.54 2.969-.001 2.898-.777-.227-2.468-.414-4.922-.496-7.364.283-.104.52-.236.633-.387.889-1.175 1.982-2.203 3.08-3.177.299-.261.605-.513.92-.755l.459-.339c.674-.53.799-.543.381-.04-.061.916-.459 1.93-.625 2.832-.549 2.992-2.127 8.889 1.346 10.775.745.403 3.43-.715 2.329-1.313zm-6.486-24.101c.305-.897.715-1.77 1.094-2.636.473-1.082 1.73-4.768 2.645-3.004.729 1.404-.426 3.717-.938 5.067-.83 2.185-2.254 3.95-4.047 5.297.31-1.58.714-3.155 1.246-4.724z"/><path d="M121.635 30.527c.006-3.288-.375-7.506-4.303-7.863-4.309-.392-6.006 4.123-6.064 7.49-.004.274.135.456.35.569-.004 3.15.76 7.26 4.508 7.197 4.181-.068 5.505-3.714 5.509-7.393zm-4.998 5.475c-2.441-.971-2.219-5.203-2.053-7.24a.542.542 0 0 0-.246-.525c.301-2.017 1.082-5.03 2.863-3.506 1.416 1.211 1.445 4.148 1.521 5.835.053 1.144-.105 6.224-2.085 5.436zM153.135 48.58c-1.127-2.886-3.588-3.994-6.293-4.128a12.032 12.032 0 0 0-1.133-2.076c-3.91-5.788-13.189-5.019-19.475-1.948-.041-.913-.09-1.824-.129-2.73 2.533.127 5-.852 6.502-2.997 1.676-2.395 1.434-6.632.777-9.314-.619-2.525-3.088-2.072-4.93-1.234-.656.298-1.279.744-1.865 1.261.055-.672.111-1.345.16-2.014.111-1.542-2.842-1.153-2.941.203-.453 6.196-.297 12.366-.441 18.54-4.271 3.862-5.348 7.501-5.391 12.06-.02 2.271 1.934 3.961 3.982 2.386 2.895-2.224 3.771-6.629 4.172-9.984.178-1.491.197-3.009.16-4.528 4.49-2.941 10.635-3.149 15.205-.1.938.626 1.711 1.594 2.262 2.696-1.688.3-3.311.855-4.613 1.482-1.713.825-4.256 2.765-4.131 4.936.098 1.69 1.029 2.638 2.283 2.979.078.033.17.063.299.084 6.135.995 10.703-2.626 9.828-7.737 2.984 1.625 4.107 5.405 3.043 8.66-2.387 7.304-11.584 8.932-16.949 4.054-.574-.523-3.184.577-2.729.992 7.786 7.076 27.058.53 22.347-11.543zm-29.944-1.775c-.102 1.738-.459 3.549-1.145 5.143a22.06 22.06 0 0 1-.801 1.598s-.26.064-.316-.717c.025-2.858.809-5.577 2.346-7.892-.025.623-.048 1.245-.084 1.868zm3.129-17.858a.768.768 0 0 0 .146-.172c.516-.917 1.207-1.728 1.908-2.507.527-.586 1.119-1.138 1.803-1.539.324.162.654.991.777 2.131.303 2.772.439 10.096-3.945 9.407-.209-.033-.57.043-.947.171v-.039c-.06-2.478.075-4.967.258-7.452zm13.08 23.744c-.016-.003-.037-.001-.055-.003-1.689-.398-1.502-1.99-1.289-3.086.492-2.524 3.576-3.883 6.117-3.959 1.284 3.567.296 7.87-4.773 7.048z"/></g></symbol><symbol id="logo-gulp" viewBox="0 0 175 387">
    <!-- Generator: Sketch 3.0.3 (7891) - http://www.bohemiancoding.com/sketch -->
    <title>gulp</title>
    <desc>Created with Sketch.</desc>
    
    <g id="Page-1" stroke="none" stroke-width="1" fill-rule="evenodd" sketch:type="MSPage">
        <g id="gulp" sketch:type="MSArtboardGroup">
            <g id="Gulp-Logo" sketch:type="MSLayerGroup" transform="translate(0.000000, 1.000000)">
                <path d="M86.72,303.739 C64.146,303.739 46.703,300.348 38.315,298.327 C32.579,296.945 27.973,295.515 24.474,294.046 L35.661,313.159 L40.037,372.878 C40.037,379.573 61.305,385 87.54,385 C113.775,385 135.043,379.573 135.043,372.878 L138.508,312.509 L149.093,293.99 C145.579,295.479 140.932,296.928 135.124,298.327 C126.736,300.348 109.293,303.739 86.72,303.739 Z M149.456,109.411 C132.888,111.725 110.899,113 87.54,113 C64.181,113 42.192,111.725 25.624,109.411 C17.417,108.265 10.924,106.913 6.325,105.395 C5.228,105.032 3.369,104.413 1.58,103.427 L11.845,197.9 C12.322,196.273 12.853,194.648 13.442,193.029 C14.647,189.711 16.041,186.467 17.623,183.298 C19.206,180.13 20.929,177.135 22.792,174.314 C24.654,171.494 26.637,168.897 28.738,166.524 C30.84,164.152 32.996,162.112 35.21,160.402 C37.423,158.694 39.657,157.358 41.912,156.396 C44.168,155.434 46.402,154.952 48.615,154.952 C51.164,154.952 53.63,155.649 56.012,157.043 C58.393,158.436 60.619,160.693 62.693,163.812 C63.169,164.509 63.471,165.214 63.596,165.927 C63.723,166.641 63.785,167.313 63.785,167.943 C63.785,169.436 63.428,170.615 62.714,171.477 C62,172.34 61.152,172.771 60.172,172.771 C59.274,172.771 58.441,172.298 57.671,171.353 C56.9,170.407 56.039,169.055 55.086,167.296 C54.189,165.703 53.202,164.551 52.124,163.837 C51.045,163.124 49.876,162.767 48.615,162.767 C46.654,162.767 44.56,163.58 42.333,165.206 C40.105,166.831 37.899,168.98 35.715,171.651 C33.529,174.323 31.435,177.375 29.432,180.81 C27.429,184.244 25.656,187.761 24.115,191.361 C22.574,194.963 21.35,198.514 20.439,202.014 C19.528,205.514 19.073,208.658 19.073,211.445 C19.073,212.375 19.137,213.33 19.262,214.307 C19.389,215.287 19.626,216.174 19.977,216.971 C20.326,217.768 20.803,218.422 21.405,218.935 C22.008,219.451 22.771,219.707 23.695,219.707 C24.732,219.707 25.908,219.359 27.226,218.662 C28.542,217.967 29.908,217.053 31.322,215.926 C32.737,214.797 34.159,213.52 35.588,212.092 C37.018,210.666 38.348,209.223 39.58,207.762 C40.812,206.303 41.905,204.9 42.857,203.557 C43.81,202.213 44.524,201.043 45.001,200.047 L48.909,188.35 C49.385,187.09 50.008,186.194 50.779,185.663 C51.549,185.132 52.341,184.866 53.154,184.866 C53.545,184.866 53.937,184.933 54.33,185.065 C54.723,185.198 55.072,185.406 55.381,185.687 C55.689,185.97 55.934,186.334 56.116,186.783 C56.298,187.23 56.389,187.753 56.389,188.35 C56.389,189.943 56.249,191.435 55.969,192.83 C55.689,194.225 55.332,195.584 54.897,196.912 C54.463,198.238 53.979,199.574 53.447,200.918 C52.915,202.262 52.396,203.664 51.893,205.125 C51.781,205.291 51.578,205.812 51.283,206.691 C50.989,207.572 50.633,208.676 50.212,210.002 C49.792,211.33 49.336,212.814 48.846,214.457 C48.355,216.1 47.852,217.775 47.334,219.484 C46.815,221.193 46.318,222.869 45.842,224.512 C45.365,226.154 44.937,227.639 44.56,228.967 C44.182,230.293 43.867,231.404 43.614,232.301 C43.362,233.197 43.208,233.727 43.152,233.895 C43.012,234.424 42.787,235.014 42.48,235.66 C42.172,236.307 41.808,236.922 41.387,237.502 C40.967,238.082 40.505,238.565 40,238.945 C39.496,239.326 38.978,239.518 38.445,239.518 C37.549,239.518 36.897,239.219 36.492,238.623 C36.085,238.025 35.883,236.93 35.883,235.338 L35.883,234.641 C35.883,234.408 35.896,234.158 35.924,233.895 C35.951,233.363 36.162,232.367 36.555,230.906 C36.947,229.447 37.416,227.797 37.963,225.955 C38.509,224.113 39.098,222.205 39.728,220.23 C40.357,218.256 40.925,216.49 41.43,214.93 C39.943,216.59 38.334,218.24 36.597,219.883 C34.859,221.525 33.08,223.002 31.26,224.312 C29.438,225.623 27.603,226.693 25.755,227.523 C23.906,228.352 22.127,228.768 20.418,228.768 C18.457,228.768 16.769,228.336 15.353,227.473 C15.098,227.316 14.857,227.141 14.617,226.967 L20.329,286.855 C21.816,290.582 49.81,299.739 86.72,299.739 C123.647,299.739 151.652,290.573 153.113,286.849 L161.318,215.647 C160.639,216.27 159.978,216.879 159.346,217.469 C156.992,219.658 154.771,221.541 152.684,223.117 C150.598,224.693 148.559,225.914 146.57,226.775 C144.58,227.639 142.451,228.07 140.182,228.07 C138.053,228.07 136.406,227.605 135.244,226.676 C134.082,225.748 133.5,224.471 133.5,222.844 L133.5,222.471 C133.5,222.355 133.514,222.213 133.543,222.047 C133.654,221.053 134.09,219.906 134.846,218.613 C135.602,217.318 136.512,215.975 137.576,214.582 C138.641,213.188 139.775,211.777 140.98,210.35 C142.185,208.924 143.299,207.572 144.322,206.293 C145.344,205.018 146.191,203.848 146.863,202.785 C147.537,201.723 147.873,200.861 147.873,200.197 C147.873,199.799 147.732,199.484 147.453,199.25 C147.172,199.02 146.709,198.902 146.066,198.902 C144.945,198.902 143.789,199.193 142.6,199.773 C141.408,200.353 140.23,201.135 139.068,202.113 C137.906,203.092 136.771,204.213 135.664,205.473 C134.559,206.734 133.522,208.045 132.555,209.404 C131.588,210.766 130.707,212.135 129.908,213.512 C129.109,214.889 128.43,216.158 127.869,217.318 C127.701,217.684 127.463,218.199 127.154,218.861 C126.846,219.525 126.51,220.273 126.146,221.102 C125.781,221.932 125.396,222.787 124.99,223.664 C124.584,224.545 124.213,225.375 123.877,226.154 C123.541,226.934 123.24,227.629 122.975,228.244 C122.707,228.857 122.518,229.281 122.406,229.514 C122.266,229.812 122.035,230.375 121.713,231.205 C121.391,232.035 121.019,233.006 120.6,234.117 C120.18,235.228 119.738,236.398 119.275,237.627 C118.815,238.853 118.379,240.016 117.973,241.111 C117.566,242.205 117.209,243.168 116.902,243.998 C116.594,244.826 116.396,245.391 116.312,245.69 C116.033,246.553 115.703,247.364 115.326,248.13 C114.947,248.892 114.514,249.564 114.023,250.146 C113.533,250.726 112.973,251.19 112.342,251.538 C111.711,251.888 111.004,252.061 110.221,252.061 C109.211,252.061 108.379,251.819 107.719,251.339 C107.062,250.858 106.732,249.936 106.732,248.577 C106.732,247.913 106.816,247.233 106.984,246.537 C107.152,245.84 107.363,245.15 107.615,244.471 C107.867,243.789 108.127,243.127 108.393,242.48 C108.658,241.832 108.904,241.211 109.127,240.613 C110.641,237.295 112.182,233.969 113.75,230.633 C115.318,227.299 116.824,223.998 118.268,220.729 C118.568,220.047 118.844,219.379 119.137,218.701 C119.049,218.787 118.963,218.877 118.877,218.961 C117.055,220.721 115.242,222.271 113.435,223.615 C111.627,224.959 109.834,226.029 108.057,226.826 C106.277,227.621 104.547,228.02 102.865,228.02 C101.717,228.02 100.758,227.838 99.988,227.473 C99.217,227.107 98.602,226.609 98.139,225.98 C97.676,225.35 97.346,224.603 97.15,223.74 C97.084,223.445 97.043,223.137 97,222.83 C96.508,223.213 96.012,223.586 95.512,223.94 C93.775,225.166 92.066,226.154 90.385,226.9 C88.705,227.647 87.191,228.02 85.848,228.02 C84.502,228.02 83.41,227.572 82.568,226.676 C81.728,225.781 81.309,224.254 81.309,222.098 C81.309,220.57 81.533,218.795 81.98,216.772 C81.252,218.066 80.342,219.377 79.25,220.703 C78.156,222.031 76.91,223.242 75.51,224.338 C74.107,225.432 72.539,226.32 70.803,227 C69.065,227.68 67.174,228.02 65.13,228.02 C64.205,228.02 63.316,227.904 62.461,227.672 C61.606,227.439 60.857,227.041 60.213,226.477 C59.568,225.914 59.051,225.158 58.658,224.213 C58.266,223.268 58.07,222.08 58.07,220.654 C58.07,220.621 58.126,220.115 58.238,219.135 C58.35,218.156 58.707,216.613 59.31,214.506 C59.912,212.4 60.844,209.67 62.103,206.318 C63.365,202.967 65.144,198.902 67.441,194.125 C68.029,192.863 68.709,191.959 69.478,191.412 C70.25,190.864 71.082,190.59 71.978,190.59 C72.371,190.59 72.777,190.649 73.197,190.764 C73.619,190.881 74.01,191.063 74.375,191.312 C74.738,191.561 75.033,191.877 75.258,192.258 C75.48,192.639 75.594,193.078 75.594,193.576 C75.594,193.908 75.551,194.225 75.467,194.521 C75.326,195.088 75.025,195.824 74.565,196.736 C74.102,197.65 73.562,198.695 72.945,199.873 C72.33,201.051 71.678,202.32 70.992,203.682 C70.305,205.041 69.668,206.451 69.08,207.912 C68.492,209.373 67.987,210.857 67.567,212.367 C67.147,213.877 66.908,215.346 66.853,216.772 C66.853,217.369 66.992,217.916 67.273,218.414 C67.553,218.912 68.016,219.16 68.66,219.16 C70.48,219.16 72.217,218.562 73.871,217.369 C75.523,216.174 77.049,214.689 78.451,212.914 C79.852,211.139 81.119,209.23 82.254,207.189 C83.389,205.148 84.334,203.283 85.09,201.59 C85.623,200.463 86.092,199.25 86.498,197.957 C86.904,196.662 87.346,195.469 87.822,194.373 C88.299,193.277 88.844,192.365 89.461,191.635 C90.076,190.906 90.848,190.54 91.771,190.54 C92.781,190.54 93.578,190.922 94.168,191.685 C94.756,192.449 95.049,193.361 95.049,194.422 C95.049,195.019 94.861,195.842 94.482,196.887 C94.103,197.932 93.627,199.127 93.053,200.471 C92.478,201.815 91.855,203.25 91.184,204.775 C90.512,206.303 89.887,207.853 89.315,209.43 C88.738,211.006 88.264,212.549 87.885,214.059 C87.506,215.568 87.318,216.971 87.318,218.264 C87.318,219.459 87.934,220.057 89.166,220.057 C90.035,220.057 91.113,219.758 92.402,219.16 C93.691,218.562 95.043,217.725 96.457,216.646 C96.81,216.377 97.166,216.096 97.519,215.801 C97.914,214.172 98.377,212.666 98.916,211.297 C99.896,208.707 100.891,206.137 101.9,203.582 C102.908,201.027 103.832,198.687 104.674,196.563 L117.406,164.459 C117.91,163.165 118.59,162.252 119.443,161.721 C120.299,161.191 121.16,160.925 122.029,160.925 C122.896,160.925 123.687,161.207 124.402,161.771 C125.117,162.336 125.475,163.248 125.475,164.509 C125.475,165.106 125.355,165.737 125.117,166.4 C124.879,167.064 124.578,167.777 124.213,168.54 C123.514,170.101 122.68,172.008 121.713,174.264 C120.746,176.521 119.709,178.977 118.603,181.631 C117.496,184.286 116.361,187.048 115.199,189.918 C114.037,192.789 112.902,195.584 111.795,198.305 C110.69,201.027 109.652,203.605 108.685,206.045 C107.719,208.484 106.887,210.6 106.185,212.391 C105.877,213.154 105.576,214.043 105.283,215.055 C104.988,216.066 104.842,216.971 104.842,217.768 C104.842,218.264 104.926,218.662 105.094,218.961 C105.262,219.26 105.584,219.41 106.06,219.41 C106.648,219.41 107.383,219.203 108.266,218.787 C109.148,218.373 110.1,217.824 111.123,217.144 C112.147,216.465 113.211,215.685 114.316,214.805 C115.424,213.926 116.523,213.014 117.615,212.068 C118.709,211.121 119.752,210.176 120.746,209.23 C121.74,208.285 122.631,207.414 123.416,206.617 C123.6,206.426 123.82,206.291 124.062,206.19 C124.535,204.777 124.967,203.393 125.348,202.039 C125.572,201.441 125.881,200.596 126.273,199.5 C126.664,198.404 127.113,197.326 127.617,196.264 C128.121,195.203 128.69,194.281 129.318,193.502 C129.949,192.723 130.629,192.332 131.357,192.332 C132.478,192.332 133.291,192.59 133.795,193.103 C134.299,193.619 134.551,194.373 134.551,195.369 C134.551,195.568 134.523,195.883 134.467,196.314 C134.41,196.746 134.342,197.203 134.258,197.684 C134.174,198.164 134.082,198.621 133.984,199.053 C133.885,199.484 133.795,199.799 133.711,199.998 C134.746,198.869 135.867,197.75 137.072,196.639 C138.277,195.527 139.523,194.521 140.812,193.627 C142.102,192.73 143.418,192.002 144.764,191.435 C146.107,190.873 147.453,190.59 148.797,190.59 C149.721,190.59 150.639,190.723 151.549,190.989 C152.459,191.254 153.273,191.644 153.986,192.158 C154.701,192.674 155.283,193.32 155.73,194.1 C156.178,194.879 156.402,195.783 156.402,196.812 C156.402,198.174 156.06,199.625 155.373,201.168 C154.687,202.711 153.826,204.262 152.789,205.82 C151.752,207.381 150.631,208.898 149.428,210.375 C148.223,211.852 147.096,213.195 146.045,214.406 C144.994,215.619 144.111,216.646 143.396,217.492 C142.684,218.34 142.31,218.912 142.283,219.211 C142.283,219.609 142.41,219.932 142.662,220.182 C142.914,220.43 143.334,220.555 143.922,220.555 C144.398,220.555 145.1,220.289 146.023,219.758 C146.947,219.227 148.244,218.307 149.91,216.996 C151.576,215.685 153.693,213.926 156.256,211.719 C158.014,210.207 160.072,208.404 162.391,206.353 L173.505,103.424 C171.715,104.412 169.853,105.032 168.755,105.395 C164.157,106.913 157.664,108.265 149.456,109.411 Z M87.474,84.99 C39.425498,84.99 0.474,90.3623808 0.474,96.99 C0.474,103.617619 39.425498,108.99 87.474,108.99 C135.522502,108.99 174.474,103.617619 174.474,96.99 C174.474,90.3623808 135.522502,84.99 87.474,84.99 Z M122.212,100.497 C122.212,102.052 117.583,103.313 111.872,103.313 C106.162,103.313 101.533,102.052 101.533,100.497 C101.533,98.941 106.162,97.68 111.872,97.68 C117.583,97.68 122.212,98.941 122.212,100.497 Z" id="Cup" sketch:type="MSShapeGroup"/>
                <path d="M103.626755,99.2519937 C103.575489,99.3337287 103.549,99.4171891 103.549,99.502 C103.549,100.509 107.276,101.324 111.872,101.324 C116.469,101.324 120.195,100.509 120.195,99.502 L131.066,55.424 L174.299046,9.77923896 C174.313162,9.76531306 174.326816,9.75090155 174.34,9.736 C175.255,8.701 173.398,5.498 170.317,2.751 C167.236,0.004 163.909,-0.926 162.875,0.12 C162.867271,0.127822825 162.859733,0.13575616 162.852383,0.143799116 L116.725,48.682 L103.626755,99.2519937 Z" id="Straw" sketch:type="MSShapeGroup"/>
            </g>
        </g>
    </g>
</symbol><symbol id="logo-hexlet" viewBox="0 0 300.000000 300.000000" preserveAspectRatio="xMidYMid meet">
<metadata>
Created by potrace 1.15, written by Peter Selinger 2001-2017
</metadata>
<g transform="translate(0.000000,300.000000) scale(0.100000,-0.100000)" stroke="none">
<path d="M1125 2490 c-203 -87 -376 -162 -383 -167 -9 -5 115 -75 370 -210
211 -112 390 -203 398 -203 8 1 195 93 415 205 l400 204 -38 16 c-276 115
-771 315 -780 315 -7 -1 -178 -72 -382 -160z"/>
<path d="M840 1133 c0 -411 4 -753 8 -759 15 -23 53 -34 115 -34 50 0 70 5 91
21 l26 20 0 350 0 349 420 0 420 0 0 -345 0 -346 25 -24 c21 -22 33 -25 98
-25 59 0 80 4 98 19 l24 19 3 751 c1 462 -1 751 -7 751 -5 0 -61 -27 -125 -61
l-116 -61 0 -224 0 -224 -420 0 -420 0 0 223 0 222 -111 60 c-61 33 -115 62
-120 63 -5 2 -9 -321 -9 -745z"/>
</g>
</symbol><symbol id="logo-html5" viewBox="0 0 299.215 299.215">
<g id="XMLID_106_">
	<path id="XMLID_107_" d="M22.347,0c-2.75,0-4.799,2.241-4.555,4.98l23.184,260.047c0.244,2.739,2.611,5.582,5.262,6.318
		l98.381,27.316c2.65,0.736,6.986,0.736,9.637,0.002l98.68-27.361c2.65-0.735,5.02-3.578,5.264-6.316L281.422,4.98
		c0.246-2.739-1.805-4.98-4.555-4.98H22.347z M232.049,59.641c-0.219,2.443-0.598,6.684-0.842,9.423l-0.611,6.823
		c-0.246,2.738-0.596,6.654-0.781,8.701c-0.184,2.048-0.359,3.723-0.391,3.723c-0.031,0-2.307,0-5.057,0h-69.76
		c-2.75,0-5.023,0-5.053,0s-2.305,0-5.055,0h-36.74c-2.75,0-4.799,2.241-4.555,4.98l2.143,23.955c0.244,2.738,2.695,4.98,5.445,4.98
		H144.5c2.75,0,5.025,0,5.055,0s2.303,0,5.053,0h57.939c2.75,0,7.006,0,9.457,0c2.449,0,4.273,1.999,4.051,4.442
		c-0.223,2.443-0.604,6.685-0.848,9.423l-6.891,77.228c-0.246,2.739-0.557,6.238-0.691,7.776c-0.137,1.537-2.416,3.396-5.066,4.131
		l-58.133,16.119c-2.65,0.734-4.852,1.342-4.893,1.351c-0.041,0.009-2.242-0.586-4.893-1.321l-58.195-16.148
		c-2.65-0.735-5.018-3.578-5.262-6.317l-3.746-42.045c-0.244-2.739,1.807-4.98,4.557-4.98h5.311c2.75,0,7.25,0,10,0h7.92
		c2.75,0,5.199,2.241,5.445,4.98l1.469,16.459c0.244,2.739,2.615,5.566,5.271,6.283l27.221,7.351
		c2.654,0.717,4.836,1.304,4.848,1.304s2.193-0.588,4.848-1.305l27.27-7.369c2.654-0.717,5.027-3.545,5.273-6.283l2.957-32.976
		c0.246-2.739-1.803-4.98-4.553-4.98h-30.666c-2.75,0-5.023,0-5.053,0s-2.305,0-5.055,0H80.511c-2.75,0-5.199-2.242-5.443-4.98
		l-7.256-81.306c-0.244-2.739-0.623-6.979-0.842-9.423c-0.217-2.443,1.854-4.442,4.604-4.442H144.5c2.75,0,5.025,0,5.055,0
		s2.303,0,5.053,0h72.838C230.195,55.198,232.267,57.197,232.049,59.641z"/>
</g>
<g>
</g>
<g>
</g>
<g>
</g>
<g>
</g>
<g>
</g>
<g>
</g>
<g>
</g>
<g>
</g>
<g>
</g>
<g>
</g>
<g>
</g>
<g>
</g>
<g>
</g>
<g>
</g>
<g>
</g>
</symbol><symbol id="logo-htmlacademy" viewBox="0 0 26.943 34.09"><path d="M13.62.017L13.472 0 0 1.412v24.661l13.473 8.017 13.43-7.99.042-.025V1.412L13.62.017zm11.399 12.11L13.495 5.334l-.001-.104-.087.05-.088-.056v.109L1.925 12.118V3.147l11.548-1.212L25.02 3.147v8.98zm-11.614-5.34L24.923 13.5l-4.479 2.64-7.093-4.221-.014 1.415 5.904 3.513-.86.507-5.03-2.992-.014 1.415 3.827 2.275-.782.523-3.031-1.787-.014 1.413 1.853 1.091-1.8 1.081-11.356-6.751 11.371-6.835zm-11.48 8.34l11.411 6.791.016 1.044-7.942-4.728-.015 1.416 7.979 4.795.018 1.076-7.973-4.74-.013 1.414 8.021 4.822.046.025 8.143-4.872-.011-5.177 3.415-2.036v10.021L13.472 31.85 1.925 24.979v-9.852z"/></symbol><symbol id="logo-js" viewBox="0 0 512 512"><g id="Layer_1"><g><path d="M112.155,67.644h84.212v236.019c0,106.375-50.969,143.497-132.414,143.497c-19.944,0-45.429-3.324-62.052-8.864    l9.419-68.146c11.635,3.878,26.594,6.648,43.214,6.648c35.458,0,57.621-16.068,57.621-73.687V67.644z"/><path d="M269.484,354.634c22.161,11.635,57.62,23.27,93.632,23.27c38.783,0,59.282-16.066,59.282-40.998    c0-22.715-17.729-36.565-62.606-52.079c-62.053-22.162-103.05-56.512-103.05-111.36c0-63.715,53.741-111.917,141.278-111.917    c42.662,0,73.132,8.313,95.295,18.838l-18.839,67.592c-14.404-7.201-41.553-17.729-77.562-17.729    c-36.567,0-54.297,17.175-54.297,36.013c0,23.824,20.499,34.349,69.256,53.188c65.928,24.378,96.4,58.728,96.4,111.915    c0,62.606-47.647,115.794-150.143,115.794c-42.662,0-84.77-11.636-105.82-23.27L269.484,354.634z"/></g></g></symbol><symbol id="logo-keksobooking" viewBox="0 0 211 45">
  
  <g transform="matrix(1, 0, 0, 1, -6.998999, -7.333994)">
    <path d="M192.687,47.161 L192.361,47.807 C191.888,48.648 191.122,49.069 190.063,49.069 L189.326,49.026 L189.340,47.594 C189.454,47.613 189.654,47.622 189.943,47.622 C190.453,47.622 190.813,47.407 191.021,46.976 L191.389,46.112 L187.858,38.595 L189.815,38.595 L192.219,43.992 L194.290,38.595 L196.282,38.595 L192.687,47.161 ZM185.983,45.906 C185.983,46.875 185.672,47.620 185.051,48.140 C184.429,48.660 183.539,48.920 182.381,48.920 L178.616,48.920 L178.616,38.595 L182.154,38.595 C183.322,38.595 184.210,38.829 184.820,39.297 C185.430,39.765 185.735,40.463 185.735,41.389 C185.735,41.862 185.607,42.287 185.352,42.666 C185.097,43.044 184.723,43.337 184.232,43.545 C184.789,43.696 185.221,43.981 185.526,44.399 C185.831,44.818 185.983,45.320 185.983,45.906 ZM183.512,40.382 C183.221,40.155 182.768,40.042 182.154,40.042 L180.410,40.042 L180.410,42.942 L182.168,42.942 C182.726,42.942 183.162,42.816 183.476,42.563 C183.791,42.310 183.948,41.952 183.948,41.489 C183.948,40.978 183.803,40.609 183.512,40.382 ZM182.551,44.261 L180.410,44.261 L180.410,47.473 L182.402,47.473 C182.965,47.473 183.404,47.335 183.721,47.057 C184.038,46.779 184.196,46.393 184.196,45.899 C184.196,44.831 183.648,44.285 182.551,44.261 ZM173.316,48.920 L171.536,48.920 L171.536,40.042 L168.345,40.042 L168.345,38.595 L176.535,38.595 L176.535,40.042 L173.316,40.042 L173.316,48.920 ZM160.943,46.735 C161.342,47.322 161.927,47.615 162.698,47.615 C163.402,47.615 163.931,47.457 164.286,47.140 C164.640,46.823 164.865,46.296 164.960,45.559 L166.747,45.559 C166.642,46.660 166.236,47.519 165.527,48.136 C164.818,48.753 163.875,49.062 162.698,49.062 C161.875,49.062 161.150,48.867 160.524,48.477 C159.898,48.087 159.414,47.533 159.074,46.814 C158.734,46.095 158.556,45.261 158.542,44.311 L158.542,43.346 C158.542,42.373 158.715,41.515 159.060,40.772 C159.405,40.030 159.900,39.458 160.545,39.056 C161.191,38.655 161.936,38.454 162.783,38.454 C163.922,38.454 164.839,38.762 165.534,39.379 C166.229,39.996 166.633,40.869 166.747,41.999 L164.960,41.999 C164.874,41.257 164.658,40.722 164.311,40.393 C163.963,40.064 163.454,39.900 162.783,39.900 C162.003,39.900 161.403,40.185 160.985,40.755 C160.567,41.326 160.353,42.162 160.343,43.264 L160.343,44.180 C160.343,45.297 160.543,46.148 160.943,46.735 ZM155.001,51.459 L155.001,48.920 L148.201,48.920 L148.201,51.459 L146.470,51.459 L146.414,47.473 L147.243,47.473 C147.655,47.077 147.983,46.500 148.229,45.742 C148.475,44.985 148.633,44.127 148.704,43.169 L148.973,38.595 L155.483,38.595 L155.483,47.473 L156.795,47.473 L156.703,51.459 L155.001,51.459 ZM153.696,40.042 L150.682,40.042 L150.512,42.944 C150.385,44.883 149.971,46.393 149.271,47.473 L153.696,47.473 L153.696,40.042 ZM138.270,38.595 L144.971,38.595 L144.971,40.042 L140.064,40.042 L140.064,42.893 L144.305,42.893 L144.305,44.311 L140.064,44.311 L140.064,47.473 L145.021,47.473 L145.021,48.920 L138.270,48.920 L138.270,38.595 ZM130.138,46.735 C130.537,47.322 131.122,47.615 131.893,47.615 C132.597,47.615 133.126,47.457 133.481,47.140 C133.836,46.823 134.060,46.296 134.155,45.559 L135.942,45.559 C135.838,46.660 135.431,47.519 134.722,48.136 C134.013,48.753 133.070,49.062 131.893,49.062 C131.070,49.062 130.345,48.867 129.719,48.477 C129.093,48.087 128.609,47.533 128.269,46.814 C127.929,46.095 127.751,45.261 127.737,44.311 L127.737,43.346 C127.737,42.373 127.910,41.515 128.255,40.772 C128.600,40.030 129.095,39.458 129.740,39.056 C130.386,38.655 131.131,38.454 131.978,38.454 C133.117,38.454 134.034,38.762 134.729,39.379 C135.424,39.996 135.828,40.869 135.942,41.999 L134.155,41.999 C134.070,41.257 133.853,40.722 133.506,40.393 C133.158,40.064 132.649,39.900 131.978,39.900 C131.198,39.900 130.598,40.185 130.180,40.755 C129.762,41.326 129.548,42.162 129.538,43.264 L129.538,44.180 C129.538,45.297 129.738,46.148 130.138,46.735 ZM123.526,48.448 C122.876,48.857 122.128,49.062 121.281,49.062 C120.445,49.062 119.699,48.857 119.044,48.448 C118.389,48.040 117.884,47.457 117.527,46.700 C117.170,45.944 116.989,45.072 116.984,44.084 L116.984,43.502 C116.984,42.495 117.163,41.607 117.520,40.836 C117.877,40.066 118.380,39.476 119.030,39.067 C119.680,38.658 120.426,38.454 121.267,38.454 C122.109,38.454 122.854,38.656 123.505,39.060 C124.154,39.464 124.657,40.045 125.011,40.804 C125.366,41.563 125.546,42.446 125.550,43.453 L125.550,44.027 C125.550,45.039 125.375,45.926 125.026,46.690 C124.676,47.453 124.176,48.040 123.526,48.448 ZM123.756,43.488 C123.756,42.344 123.540,41.467 123.107,40.857 C122.675,40.248 122.062,39.943 121.267,39.943 C120.492,39.943 119.886,40.246 119.448,40.854 C119.011,41.461 118.788,42.321 118.778,43.431 L118.778,44.027 C118.778,45.162 118.999,46.039 119.441,46.658 C119.883,47.277 120.497,47.587 121.281,47.587 C122.076,47.587 122.687,47.284 123.115,46.679 C123.542,46.074 123.756,45.190 123.756,44.027 L123.756,43.488 ZM109.178,46.735 C109.577,47.322 110.162,47.615 110.933,47.615 C111.637,47.615 112.167,47.457 112.521,47.140 C112.876,46.823 113.100,46.296 113.195,45.559 L114.982,45.559 C114.878,46.660 114.471,47.519 113.762,48.136 C113.053,48.753 112.110,49.062 110.933,49.062 C110.110,49.062 109.386,48.867 108.759,48.477 C108.133,48.087 107.650,47.533 107.309,46.814 C106.969,46.095 106.792,45.261 106.777,44.311 L106.777,43.346 C106.777,42.373 106.950,41.515 107.295,40.772 C107.640,40.030 108.135,39.458 108.781,39.056 C109.426,38.655 110.172,38.454 111.018,38.454 C112.157,38.454 113.074,38.762 113.769,39.379 C114.464,39.996 114.868,40.869 114.982,41.999 L113.195,41.999 C113.110,41.257 112.893,40.722 112.546,40.393 C112.199,40.064 111.689,39.900 111.018,39.900 C110.238,39.900 109.639,40.185 109.220,40.755 C108.802,41.326 108.588,42.162 108.579,43.264 L108.579,44.180 C108.579,45.297 108.778,46.148 109.178,46.735 ZM98.223,48.448 C97.573,48.857 96.825,49.062 95.979,49.062 C95.142,49.062 94.397,48.857 93.742,48.448 C93.087,48.040 92.581,47.457 92.224,46.700 C91.867,45.944 91.687,45.072 91.682,44.084 L91.682,43.502 C91.682,42.495 91.860,41.607 92.217,40.836 C92.574,40.066 93.078,39.476 93.728,39.067 C94.378,38.658 95.123,38.454 95.965,38.454 C96.806,38.454 97.552,38.656 98.202,39.060 C98.852,39.464 99.355,40.045 99.709,40.804 C100.064,41.563 100.243,42.446 100.248,43.453 L100.248,44.027 C100.248,45.039 100.073,45.926 99.723,46.690 C99.373,47.453 98.873,48.040 98.223,48.448 ZM98.454,43.488 C98.454,42.344 98.238,41.467 97.805,40.857 C97.373,40.248 96.759,39.943 95.965,39.943 C95.190,39.943 94.583,40.246 94.146,40.854 C93.709,41.461 93.485,42.321 93.476,43.431 L93.476,44.027 C93.476,45.162 93.697,46.039 94.139,46.658 C94.581,47.277 95.194,47.587 95.979,47.587 C96.773,47.587 97.384,47.284 97.812,46.679 C98.240,46.074 98.454,45.190 98.454,44.027 L98.454,43.488 ZM87.332,40.042 L82.787,40.042 L82.787,48.920 L81.000,48.920 L81.000,38.595 L89.119,38.595 L89.119,48.920 L87.332,48.920 L87.332,40.042 ZM71.904,38.595 L73.691,38.595 L73.691,48.920 L71.904,48.920 L71.904,38.595 ZM67.224,48.920 L63.274,48.920 L63.274,38.595 L65.068,38.595 L65.068,42.545 L67.181,42.545 C67.937,42.545 68.597,42.675 69.159,42.935 C69.722,43.195 70.150,43.564 70.443,44.041 C70.736,44.519 70.882,45.072 70.882,45.701 C70.882,46.665 70.555,47.440 69.900,48.026 C69.246,48.613 68.353,48.911 67.224,48.920 ZM68.599,44.457 C68.268,44.156 67.810,44.001 67.224,43.992 L65.068,43.992 L65.068,47.473 L67.174,47.473 C67.779,47.473 68.250,47.310 68.589,46.984 C68.926,46.657 69.096,46.224 69.096,45.683 C69.096,45.166 68.930,44.757 68.599,44.457 ZM55.091,46.735 C55.491,47.322 56.076,47.615 56.846,47.615 C57.551,47.615 58.080,47.457 58.435,47.140 C58.789,46.823 59.014,46.296 59.108,45.559 L60.895,45.559 C60.791,46.660 60.385,47.519 59.676,48.136 C58.967,48.753 58.024,49.062 56.846,49.062 C56.024,49.062 55.299,48.867 54.673,48.477 C54.047,48.087 53.563,47.533 53.223,46.814 C52.883,46.095 52.705,45.261 52.691,44.311 L52.691,43.346 C52.691,42.373 52.864,41.515 53.209,40.772 C53.554,40.030 54.049,39.458 54.694,39.056 C55.340,38.655 56.085,38.454 56.932,38.454 C58.071,38.454 58.988,38.762 59.683,39.379 C60.378,39.996 60.782,40.869 60.895,41.999 L59.108,41.999 C59.023,41.257 58.807,40.722 58.460,40.393 C58.112,40.064 57.603,39.900 56.932,39.900 C56.152,39.900 55.552,40.185 55.134,40.755 C54.716,41.326 54.502,42.162 54.492,43.264 L54.492,44.180 C54.492,45.297 54.692,46.148 55.091,46.735 ZM49.143,48.920 L45.987,44.495 L44.768,44.495 L44.768,48.920 L42.981,48.920 L42.981,38.595 L44.768,38.595 L44.768,42.935 L45.753,42.935 L48.788,38.595 L50.986,38.595 L47.441,43.538 L51.298,48.920 L49.143,48.920 ZM33.993,38.595 L40.694,38.595 L40.694,40.042 L35.787,40.042 L35.787,42.893 L40.028,42.893 L40.028,44.311 L35.787,44.311 L35.787,47.473 L40.744,47.473 L40.744,48.920 L33.993,48.920 L33.993,38.595 ZM30.119,48.920 L26.963,44.495 L25.744,44.495 L25.744,48.920 L23.957,48.920 L23.957,38.595 L25.744,38.595 L25.744,42.935 L26.729,42.935 L29.764,38.595 L31.962,38.595 L28.417,43.538 L32.274,48.920 L30.119,48.920 Z" class="cls-1"/>
    <path d="M208.579,18.539 C207.621,18.539 206.812,17.826 206.812,16.950 C206.812,16.073 207.621,15.361 208.579,15.361 L214.689,15.361 C215.648,15.361 216.427,16.073 216.427,16.950 L216.427,22.593 C216.427,23.031 216.247,23.442 215.917,23.744 C213.881,25.606 211.185,26.538 208.519,26.538 C205.824,26.538 203.128,25.606 201.091,23.744 C199.115,21.936 198.036,19.525 198.036,16.950 C198.036,14.402 199.115,11.991 201.091,10.183 C203.068,8.348 205.704,7.361 208.519,7.361 C211.305,7.361 213.941,8.348 215.947,10.183 C216.277,10.484 216.427,10.868 216.427,11.279 C216.427,11.690 216.277,12.101 215.917,12.430 C215.558,12.758 215.139,12.895 214.689,12.895 C214.240,12.895 213.791,12.758 213.461,12.430 C212.144,11.224 210.376,10.567 208.519,10.567 C206.632,10.567 204.895,11.224 203.577,12.430 C202.260,13.635 201.511,15.251 201.511,16.950 C201.511,18.648 202.260,20.264 203.577,21.470 C204.925,22.730 206.722,23.360 208.519,23.360 C210.107,23.360 211.664,22.867 212.952,21.908 L212.952,18.539 L208.579,18.539 ZM193.899,26.538 C193.330,26.538 192.791,26.291 192.462,25.853 L183.416,14.018 L183.416,24.949 C183.416,25.826 182.608,26.538 181.649,26.538 C180.691,26.538 179.912,25.826 179.912,24.949 L179.912,8.950 C179.912,8.129 180.631,7.361 181.679,7.361 C182.218,7.361 182.757,7.608 183.087,8.046 L192.132,19.881 L192.132,8.950 C192.132,8.074 192.911,7.361 193.899,7.361 C194.858,7.361 195.637,8.074 195.637,8.950 L195.637,24.949 C195.637,25.798 194.858,26.538 193.899,26.538 ZM173.980,26.538 C173.022,26.538 172.243,25.826 172.243,24.949 L172.243,8.950 C172.243,8.074 173.022,7.361 173.980,7.361 C174.939,7.361 175.717,8.074 175.717,8.950 L175.717,24.949 C175.717,25.826 174.939,26.538 173.980,26.538 ZM169.844,24.949 C169.844,25.826 169.065,26.538 168.107,26.538 C167.627,26.538 167.178,26.374 166.819,26.017 L159.391,18.566 L159.391,24.949 C159.391,25.826 158.582,26.538 157.624,26.538 C156.665,26.538 155.886,25.826 155.886,24.949 L155.886,8.950 C155.886,8.074 156.665,7.361 157.624,7.361 C158.582,7.361 159.391,8.074 159.391,8.950 L159.391,15.333 L166.819,7.882 C167.148,7.553 167.627,7.361 168.107,7.361 C169.095,7.361 169.844,8.101 169.844,8.950 C169.844,9.361 169.694,9.745 169.394,10.046 L162.476,16.950 L169.394,23.853 C169.694,24.155 169.844,24.565 169.844,24.949 ZM143.422,26.538 C137.881,26.538 133.388,22.237 133.388,16.950 C133.388,11.662 137.881,7.361 143.422,7.361 C148.963,7.361 153.486,11.662 153.486,16.950 C153.486,22.237 148.963,26.538 143.422,26.538 ZM143.422,10.567 C139.828,10.567 136.893,13.416 136.893,16.950 C136.893,20.484 139.828,23.333 143.422,23.333 C147.046,23.333 149.981,20.484 149.981,16.950 C149.981,13.416 147.046,10.567 143.422,10.567 ZM120.924,26.538 C115.383,26.538 110.890,22.237 110.890,16.950 C110.890,11.662 115.383,7.361 120.924,7.361 C126.465,7.361 130.988,11.662 130.988,16.950 C130.988,22.237 126.465,26.538 120.924,26.538 ZM120.924,10.567 C117.330,10.567 114.395,13.416 114.395,16.950 C114.395,20.484 117.330,23.333 120.924,23.333 C124.548,23.333 127.483,20.484 127.483,16.950 C127.483,13.416 124.548,10.567 120.924,10.567 ZM102.351,26.538 L96.241,26.538 C95.282,26.538 94.504,25.826 94.504,24.949 L94.504,8.950 C94.504,8.074 95.282,7.361 96.241,7.361 L101.063,7.361 C101.213,7.361 102.501,7.416 103.789,7.992 C105.705,8.868 106.724,10.457 106.724,12.566 C106.724,13.717 106.394,14.758 105.795,15.580 C107.532,16.621 108.491,18.374 108.491,20.538 C108.491,24.237 105.166,26.538 102.351,26.538 ZM101.303,10.567 C101.153,10.567 101.063,10.567 101.063,10.567 L98.008,10.567 L98.008,14.566 L100.614,14.566 C101.063,14.566 103.249,14.484 103.249,12.566 C103.249,10.731 101.872,10.567 101.303,10.567 ZM102.141,17.744 L98.008,17.744 L98.008,23.333 L102.141,23.333 C102.171,23.333 102.980,23.305 103.699,22.949 C104.867,22.346 104.987,21.278 104.987,20.538 C104.987,19.525 104.298,17.744 102.141,17.744 ZM82.039,26.538 C76.498,26.538 72.006,22.237 72.006,16.950 C72.006,11.662 76.498,7.361 82.039,7.361 C87.580,7.361 92.103,11.662 92.103,16.950 C92.103,22.237 87.580,26.538 82.039,26.538 ZM82.039,10.567 C78.445,10.567 75.510,13.416 75.510,16.950 C75.510,20.484 78.445,23.333 82.039,23.333 C85.663,23.333 88.599,20.484 88.599,16.950 C88.599,13.416 85.663,10.567 82.039,10.567 ZM62.628,26.483 L62.388,26.483 C59.842,26.401 57.626,25.086 56.578,23.031 C56.458,22.812 56.428,22.566 56.428,22.346 C56.428,21.744 56.787,21.168 57.446,20.895 C57.686,20.785 57.925,20.758 58.165,20.758 C58.824,20.758 59.483,21.086 59.782,21.689 C60.262,22.648 61.280,23.250 62.508,23.278 L62.658,23.278 C63.706,23.278 64.575,22.977 65.204,22.401 C65.803,21.853 66.132,21.168 66.132,20.429 L66.132,20.319 C66.042,19.059 63.437,17.936 62.298,17.635 L62.179,17.580 C59.094,16.566 57.536,14.785 57.536,12.320 L57.536,12.101 C57.596,10.704 58.285,9.443 59.573,8.567 C60.651,7.800 62.119,7.334 63.676,7.334 L63.946,7.334 C65.204,7.361 66.492,7.827 67.540,8.539 C67.989,8.868 68.229,9.334 68.229,9.800 C68.229,10.128 68.109,10.484 67.869,10.758 C67.510,11.169 67.001,11.389 66.462,11.389 C66.102,11.389 65.743,11.306 65.413,11.087 C64.964,10.758 64.365,10.567 63.826,10.539 L63.646,10.539 C62.179,10.539 61.040,11.224 61.010,12.210 L61.010,12.320 C61.010,13.662 62.149,14.155 63.317,14.594 C64.215,14.840 69.427,16.374 69.607,20.155 L69.607,20.429 C69.607,22.018 68.918,23.524 67.720,24.620 C66.402,25.826 64.605,26.483 62.628,26.483 ZM54.029,24.949 C54.029,25.826 53.250,26.538 52.292,26.538 C51.812,26.538 51.363,26.374 51.004,26.017 L43.576,18.566 L43.576,24.949 C43.576,25.826 42.767,26.538 41.808,26.538 C40.850,26.538 40.071,25.826 40.071,24.949 L40.071,8.950 C40.071,8.074 40.850,7.361 41.808,7.361 C42.767,7.361 43.576,8.074 43.576,8.950 L43.576,15.333 L51.004,7.882 C51.333,7.553 51.812,7.361 52.292,7.361 C53.280,7.361 54.029,8.101 54.029,8.950 C54.029,9.361 53.879,9.745 53.579,10.046 L46.661,16.950 L53.579,23.853 C53.879,24.155 54.029,24.565 54.029,24.949 ZM35.306,23.333 C36.294,23.333 37.073,24.045 37.073,24.949 C37.073,25.826 36.294,26.538 35.306,26.538 L25.721,26.538 C24.733,26.538 23.954,25.826 23.954,24.949 L23.954,8.950 C23.954,8.074 24.733,7.361 25.721,7.361 L35.306,7.361 C36.294,7.361 37.073,8.074 37.073,8.950 C37.073,9.854 36.294,10.567 35.306,10.567 L27.459,10.567 L27.459,15.361 L33.569,15.361 C34.527,15.361 35.306,16.073 35.306,16.950 C35.306,17.826 34.527,18.539 33.569,18.539 L27.459,18.539 L27.459,23.333 L35.306,23.333 ZM20.956,24.949 C20.956,25.826 20.177,26.538 19.219,26.538 C18.740,26.538 18.290,26.374 17.931,26.017 L10.503,18.566 L10.503,24.949 C10.503,25.826 9.694,26.538 8.736,26.538 C7.777,26.538 6.999,25.826 6.999,24.949 L6.999,8.950 C6.999,8.074 7.777,7.361 8.736,7.361 C9.694,7.361 10.503,8.074 10.503,8.950 L10.503,15.333 L17.931,7.882 C18.260,7.553 18.740,7.361 19.219,7.361 C20.207,7.361 20.956,8.101 20.956,8.950 C20.956,9.361 20.806,9.745 20.507,10.046 L13.588,16.950 L20.507,23.853 C20.806,24.155 20.956,24.565 20.956,24.949 Z" class="cls-2"/>
  </g>
</symbol><symbol id="logo-mishka" viewBox="32.458 20.216 85.589 35.034"><path d="M36.638 46.517c-.014-3.472-.262-6.938-.356-10.409-.008-.34-.015-.681-.02-1.021l.146.364c.54 1.352 1.103 2.663 1.839 3.92.731 1.244 1.099 2.58 1.521 3.939-.159.182-.256.39-.196.596-.033.15.059.245.212.306.537.46 1.55.231 2.113-.008a5.42 5.42 0 0 0 .696-.355c.29-.181.744-.572.613-.977l-.072-.235c.396-1.068.598-2.179.813-3.308.23-1.206.659-2.345 1.092-3.485.043.521.088 1.044.129 1.56.174 2.147.028 4.27.008 6.422a9.896 9.896 0 0 0 .184 2.075c.059.287.31 1.521.235 1.58-.516.476-.366 1.061.326 1.211.771.169 1.753-.088 2.333-.625 1.009-.934.531-2.396.304-3.572-.385-1.973.077-4.181.017-6.189-.069-2.26-.43-4.503-.399-6.769.023-1.831.328-3.714-.303-5.471.039-.2.08-.398.117-.6.163-.879-2.754-.414-3.212.392-.29.235-.438.519-.313.806.031.071.057.146.084.219-.552 2.699-1.321 5.313-2.207 7.93-.339 1.001-.748 1.977-1.095 2.978-.49-.933-.986-1.851-1.384-2.847-1.155-2.891-2.199-5.813-3.61-8.596.16-1.289-2.698-1.153-3.261.02-.682 1.426-.592 2.866-.369 4.393.254 1.721.298 3.411.32 5.147.039 3.347.3 6.689.351 10.04-.298.331-.389.741-.078 1.158.136.182.306.321.482.46.756.632 2.945.113 2.94-1.049zm18.196-18.372c-.089-.613-3.416.084-3.3.885.259 1.776.167 3.561.136 5.352-.031 1.722.394 3.282.615 4.971.226 1.732-.071 3.502.126 5.235.09.812.632 2.312.074 3.018-.354.447 1.237.285 1.31.275.646-.12 1.509-.331 1.938-.875.552-.697.165-2.042.045-2.82-.267-1.734-.097-3.537-.162-5.286-.061-1.676-.644-3.254-.65-4.946-.009-1.953.153-3.877-.132-5.809zm3.124 6.646c.91 2.514 4.648 1.327 6.551 1.471 3.238.239 2.272 4.607 2.313 6.641.022 1.085.995 2.889.179 3.798-.502.556-1.669.589-2.352.646-.687.057-1.854.261-2.312-.39-.836-1.194.077-3.2-.102-4.568-.103-.78-3.424-.08-3.299.884.29 2.211-1.179 5.175 2.022 5.556 2.059.244 4.372-.136 6.317-.783 1.008-.334 1.943-.792 2.731-1.509.872-.794.585-1.979.352-2.987-.569-2.458.616-5.289-.987-7.454-1.738-2.345-4.962-.657-7.212-1.297-1.161-.33-1.175-1.911-1.17-2.86.002-1.202-.098-2.302-.231-3.491-.1-.887-.021-1.787.628-2.447.119-.121.723-.283.681-.28.299-.051.572-.062.9-.076 1.304-.056 3.885.195 3.386 2.092-.226.851 3.028.363 3.266-.53 1.021-3.874-6.138-3.131-8.159-2.593-1.863.494-3.916 1.555-4.023 3.704-.052 1.027.229 2.006.274 3.022.053 1.154-.165 2.322.247 3.451zm14.455 1.87c-.053 1.799-.208 3.593-.22 5.393-.006.921.146 1.842.278 2.75.122.841.407 1.964.152 2.796-.198.646 3 .242 3.254-.587.458-1.497-.188-3.402-.341-4.918-.147-1.451-.032-2.945.072-4.42 1.708-.11 3.418-.249 5.119-.011.076 1.163.164 2.321.272 3.48.088.976.151 1.948.164 2.929.015.855.12 2.099-.185 2.913-.651 1.731 2.655 1.59 3.136.3.592-1.577.423-3.537.323-5.194-.13-2.059-.404-4.106-.47-6.166-.102-3.183-.58-6.329-.594-9.51-.007-1.661-3.338-1.099-3.331.288.012 3.04.417 6.037.571 9.068.005.061.008.121.01.18-1.64-.016-3.281.149-4.929.207.171-3.902-.515-7.771-.364-11.672.02-.492-3.264-.077-3.3.883-.143 3.781.496 7.521.383 11.291zm14.08 5.371c-.254.259-.159.414.045.506a50.736 50.736 0 0 1-.178 4.424c-.396.63.39.96.912.96h.082c.622 0 2.209-.293 2.289-1.148.162-1.769.211-3.535.196-5.299 1.337-1.446 2.434-3.057 3.416-4.748.64 1.248 1.247 2.505 1.676 3.861.725 2.31 1.938 4.431 2.637 6.75.459 1.521 3.754.621 3.298-.885-.701-2.319-1.856-4.462-2.638-6.75-.791-2.322-1.998-4.361-3.046-6.568.845-1.641 1.699-3.283 2.47-4.96.698-1.524 1.219-3.216 2.594-4.289.483-.376.464-.755-.216-.801-.737-.054-1.738.159-2.334.625-1.25.974-2.042 2.158-2.694 3.595a136.28 136.28 0 0 1-2.455 5.117l-.188.373c-.412.264-.66.642-.539 1.064-.666 1.316-1.347 2.627-2.104 3.885-.252-4.661-.803-9.317-.969-13.983-.036-1.068-3.345-.403-3.297.886.204 5.785 1.024 11.557 1.083 17.34l-.04.045zm31.534-6.232c-.177-.701-1.155-.716-1.914-.648-.01-.281-.017-.566-.029-.849-.106-2.241-.139-4.53-.329-6.765-.176-2.069-1.335-2.812-3.346-2.734-2.035.077-4.404.443-6.302 1.183-2.197.853-3.421 2.471-3.841 4.784-.464 2.539.201 5.238.313 7.789.13 2.951.056 5.909.054 8.859 0 .484 3.297.027 3.297-.884.004-2.338.037-4.676 0-7.014a45.318 45.318 0 0 0-.085-2.057c1.155-.499 3.106.01 4.255.118.933.089 1.826-.138 2.732-.244.017 1.946.09 3.905.17 5.851.042.997.402 2.975-.297 3.799-.368.436 1.249.288 1.31.28.668-.124 1.482-.338 1.939-.87.8-.942.384-3.192.338-4.316-.065-1.611-.086-3.223-.121-4.834.973-.137 2.037-.733 1.856-1.448zm-6.662-.162c-1.928-.046-3.828-.349-5.651.036-.086-1.051-.183-2.098-.255-3.154-.134-1.962.099-4.702 1.928-5.896.492-.318 1.413-.264 1.984-.368.819-.147 1.647-.328 2.384.16 1.018.676.769 3.08.766 4.101-.002 1.69.177 3.37.262 5.059-.466.046-.939.072-1.418.062zM51.159 24.322a.578.578 0 0 0 .119.497l.002.114.013.282a.766.766 0 0 0 .362.446c.325.196.737.232 1.108.196a2.676 2.676 0 0 0 1.245-.439l.216-.183c.438-.282.818-.697.612-1.146-.424-.932-.358-1.88-.35-2.87.005-.808-.812-1.051-1.501-.989-.608.054-1.827.489-1.831 1.279-.007.836-.062 1.698.092 2.522-.04.088-.064.194-.087.291zm61.577 29.183c-1.558-.585-3.283-.615-4.851-.787-1.603-.17-3.245-.41-4.884-.562-1.637.053-3.31.027-4.972.129l-4.88.268c-6.487.289-12.999.253-19.517.107-6.517-.123-13.045-.477-19.63-.453-3.288.008-6.565.099-9.862.25-1.632.283-3.239.501-4.904.913-1.615.399-3.145.907-4.794 1.048 1.623.362 3.341.292 4.962.297 1.579.01 3.243.143 4.872.231 3.229-.172 6.487-.246 9.733-.25 6.487-.024 13.015.329 19.565.451 6.548.146 13.114.186 19.683-.11l4.907-.269c1.603-.071 3.198-.127 4.829-.067 1.628-.148 3.253-.33 4.918-.532 1.664-.238 3.22-.627 4.854-.509l.074.006.006-.055c.021-.178-.04-.323-.04-.479-.033.119-.038.256-.069.373z"/></symbol><symbol id="logo-sass" viewBox="0 0 547.8 410.6">
<path d="M471.4,236c-19.1,0.1-35.7,4.7-49.6,11.5c-5.1-10.1-10.2-19.1-11.1-25.7c-1-7.7-2.2-12.4-1-21.6
	c1.2-9.2,6.6-22.3,6.5-23.3s-1.2-5.7-12.2-5.8c-11-0.1-20.5,2.1-21.6,5c-1.1,2.9-3.2,9.5-4.6,16.3c-1.9,10-22,45.7-33.5,64.4
	c-3.7-7.3-6.9-13.7-7.6-18.8c-1-7.7-2.2-12.4-1-21.6c1.2-9.2,6.6-22.3,6.5-23.3c-0.1-1-1.2-5.7-12.2-5.8c-11-0.1-20.5,2.1-21.6,5
	c-1.1,2.9-2.3,9.7-4.6,16.3c-2.3,6.6-29,66.2-36,81.6c-3.6,7.9-6.7,14.2-8.9,18.5c0,0,0,0,0,0s-0.1,0.3-0.4,0.8
	c-1.9,3.7-3,5.7-3,5.7s0,0,0,0.1c-1.5,2.7-3.1,5.2-3.9,5.2c-0.6,0-1.7-7.2,0.2-17c4-20.7,13.5-52.9,13.4-54c0-0.6,1.8-6.2-6.2-9.1
	c-7.8-2.9-10.6,1.9-11.3,1.9c-0.7,0-1.2,1.7-1.2,1.7s8.7-36.2-16.6-36.2c-15.8,0-37.6,17.3-48.4,32.9c-6.8,3.7-21.3,11.6-36.8,20.1
	c-5.9,3.3-12,6.6-17.7,9.7c-0.4-0.4-0.8-0.9-1.2-1.3c-30.6-32.7-87.2-55.8-84.8-99.7c0.9-16,6.4-58,108.7-109
	C233.9,19,300.9,30.5,312.5,56c16.6,36.4-35.9,104-122.9,113.8c-33.2,3.7-50.6-9.1-55-13.9c-4.6-5-5.3-5.3-7-4.3c-2.8,1.5-1,6,0,8.6
	c2.6,6.8,13.3,18.8,31.4,24.7c16,5.2,54.9,8.1,102-10.1c52.7-20.4,93.9-77.1,81.8-124.6C330.7,2,250.7-13.9,175,13
	C130,29,81.2,54.2,46.1,87c-41.7,39-48.3,72.9-45.6,87.1c9.7,50.4,79.2,83.2,107,107.5c-1.4,0.8-2.7,1.5-3.8,2.1
	c-13.9,6.9-66.9,34.6-80.1,63.9c-15,33.2,2.4,57,13.9,60.2c35.7,9.9,72.4-7.9,92.1-37.3c19.7-29.4,17.3-67.6,8.2-85.1
	c-0.1-0.2-0.2-0.4-0.4-0.6c3.6-2.1,7.3-4.3,10.9-6.4c7.1-4.2,14.1-8.1,20.1-11.3c-3.4,9.3-5.9,20.4-7.1,36.4
	c-1.5,18.8,6.2,43.2,16.3,52.8c4.5,4.2,9.8,4.3,13.2,4.3c11.8,0,17.1-9.8,23-21.4c7.2-14.2,13.7-30.7,13.7-30.7s-8.1,44.6,13.9,44.6
	c8,0,16.1-10.4,19.7-15.7c0,0.1,0,0.1,0,0.1s0.2-0.3,0.6-1c0.8-1.3,1.3-2.1,1.3-2.1s0-0.1,0-0.2c3.2-5.6,10.4-18.3,21.1-39.4
	c13.8-27.2,27.1-61.2,27.1-61.2s1.2,8.3,5.3,22.1c2.4,8.1,7.4,17,11.4,25.6c-3.2,4.5-5.2,7-5.2,7s0,0,0.1,0.1
	c-2.6,3.4-5.4,7.1-8.5,10.7c-10.9,13-23.9,27.9-25.7,32.2c-2.1,5.1-1.6,8.8,2.4,11.8c2.9,2.2,8.1,2.5,13.4,2.2
	c9.8-0.7,16.7-3.1,20.1-4.6c5.3-1.9,11.5-4.8,17.3-9.1c10.7-7.9,17.2-19.2,16.6-34.1c-0.3-8.2-3-16.4-6.3-24.1
	c1-1.4,1.9-2.8,2.9-4.2c16.9-24.7,30-51.8,30-51.8s1.2,8.3,5.3,22.1c2,7,6.1,14.6,9.7,22c-15.9,12.9-25.7,27.9-29.2,37.7
	c-6.3,18.2-1.4,26.4,7.9,28.3c4.2,0.9,10.2-1.1,14.6-3c5.6-1.8,12.2-4.9,18.5-9.5c10.7-7.9,21-18.9,20.4-33.8
	c-0.3-6.8-2.1-13.5-4.6-20c13.5-5.6,30.9-8.7,53.1-6.1c47.6,5.6,57,35.3,55.2,47.8c-1.8,12.5-11.8,19.3-15.1,21.4
	c-3.3,2.1-4.4,2.8-4.1,4.3c0.4,2.2,2,2.1,4.8,1.7c3.9-0.7,25-10.1,25.9-33.1C548.9,267.8,520.9,235.7,471.4,236z M104.2,359.8
	C88.4,377,66.4,383.5,56.9,378c-10.2-5.9-6.2-31.3,13.2-49.5c11.8-11.1,27-21.4,37.1-27.7c2.3-1.4,5.7-3.4,9.8-5.9
	c0.7-0.4,1.1-0.6,1.1-0.6l0,0c0.8-0.5,1.6-1,2.4-1.5C127.6,318.8,120.8,341.7,104.2,359.8z M219.2,281.6c-5.5,13.4-17,47.7-24,45.8
	c-6-1.6-9.7-27.6-1.2-53.3c4.3-12.9,13.4-28.3,18.7-34.3c8.6-9.6,18.1-12.8,20.4-8.9C236,236,222.6,273.2,219.2,281.6z M314.1,327
	c-2.3,1.2-4.5,2-5.5,1.4c-0.7-0.4,1-2,1-2s11.9-12.8,16.6-18.6c2.7-3.4,5.9-7.4,9.3-11.9c0,0.4,0,0.9,0,1.3
	C335.5,312.5,320.7,322.8,314.1,327z M387.3,310.3c-1.7-1.2-1.4-5.2,4.3-17.7c2.2-4.9,7.4-13.1,16.3-21c1,3.2,1.7,6.3,1.6,9.2
	C409.4,300.1,395.6,307.3,387.3,310.3z"/>
<g>
</g>
<g>
</g>
<g>
</g>
<g>
</g>
<g>
</g>
<g>
</g>
</symbol><symbol id="logo-telegram" viewBox="0 0 300 300">
<g id="XMLID_496_">
	<path id="XMLID_497_" d="M5.299,144.645l69.126,25.8l26.756,86.047c1.712,5.511,8.451,7.548,12.924,3.891l38.532-31.412
		c4.039-3.291,9.792-3.455,14.013-0.391l69.498,50.457c4.785,3.478,11.564,0.856,12.764-4.926L299.823,29.22
		c1.31-6.316-4.896-11.585-10.91-9.259L5.218,129.402C-1.783,132.102-1.722,142.014,5.299,144.645z M96.869,156.711l135.098-83.207
		c2.428-1.491,4.926,1.792,2.841,3.726L123.313,180.87c-3.919,3.648-6.447,8.53-7.163,13.829l-3.798,28.146
		c-0.503,3.758-5.782,4.131-6.819,0.494l-14.607-51.325C89.253,166.16,91.691,159.907,96.869,156.711z"/>
</g>
<g>
</g>
<g>
</g>
<g>
</g>
<g>
</g>
<g>
</g>
<g>
</g>
<g>
</g>
<g>
</g>
<g>
</g>
<g>
</g>
<g>
</g>
<g>
</g>
<g>
</g>
<g>
</g>
<g>
</g>
</symbol></svg>