<svg height="512" viewBox="0 0 60 60" width="512" xmlns="http://www.w3.org/2000/svg"><g id="010---Contacts"><path id="Shape" d="m2.454 43.132c-1.4318972.3990049-2.34780079 1.7957259-2.143 3.268l1.7 12.736c.06787434.4944444.48991937.8631471.989.864h54c.5011704-.0001252.9248455-.3712149.991-.868l1.7-12.736c.1157211-.8676508-.1532785-1.7425676-.7364632-2.3953347-.5831847-.652767-1.4223801-1.0182688-2.2975368-1.0006653l2.412-23.467c.2458067-2.2303046-1.0372033-4.3475992-3.128-5.162l.1-.4c.2891858-1.1410888.0570622-2.3516718-.6336916-3.3048618s-1.7688984-1.5506819-2.9433084-1.6311382l.368-.92c.3822677-.95607139.2484097-2.04129617-.3547208-2.87582278-.6031306-.8345266-1.5915457-1.30214437-2.6192792-1.23917722.3323272-.91499085.1971191-1.93459286-.3621999-2.73134366-.5593191-.7967508-1.4723286-1.27033623-2.4458001-1.26865634h-34.1c-.9732926-.00107382-1.885947.4725909-2.4452961 1.26910091-.5593492.79651-.69509387 1.81575956-.3637039 2.73089909-1.02822673-.06522277-2.01798992.4017545-2.62145403 1.23682053-.6034641.83506604-.73619474 1.92138162-.35154597 2.87717947l.368.92c-1.20026912.08001632-2.29935372.70046929-2.98800276 1.6867811-.68864904.9863119-.89242724 2.2318733-.55399724 3.3862189-2.52151669.5148656-4.23863242 2.8619368-3.966 5.421zm55.015 2.21c.1911136.215819.2780914.5045269.238.79l-.383 2.868h-43.324c-.5522847 0-1 .4477153-1 1s.4477153 1 1 1h43.058l-.934 7h-52.248l-.934-7h6.058c.55228475 0 1-.4477153 1-1s-.44771525-1-1-1h-6.324l-.383-2.868c-.03804085-.2856665.04901025-.5738566.23883774-.7906928.18982749-.2168363.46397408-.3412352.75216226-.3413072 57.084 0 53.716-.2 54.185.342zm-49.283-22.256c-.02415194-.2797735.07044298-.5568098.26066062-.7633862.19021763-.2065763.45852725-.3236543.73933938-.3226138h16.814c.5522847 0 1 .4477153 1 1v18.438c-.642-.726-.885-.847-4.677-2.854-.3272506-.1575878-.5636922-.4571052-.641-.812l-.125-1.118c.6894314-.7788202 1.1682643-1.7209953 1.391-2.737.3707326-.3477366.5559955-.8497991.5-1.355-.2-1.763-.128-2-.756-2.583l-.244-2.079c-.083-.4-.94-3.9-5.547-3.9-3.327 0-4.93 1.971-4.865 4.236l.214 1.906c-.2565541.3121587-.3804258.7124977-.345 1.115l.171 1.527c.0626382.5057694.3384756.9606464.758 1.25.465945 1.0639834 1.1611755 2.0119008 2.036 2.776l.13 1.185c.0211504.2777682-.1357046.5385246-.391.65l-2.884 1.826c-.9502156.5092445-1.5859486 1.4566627-1.697 2.529-.171 0 .02 1.56-1.842-19.914zm8.806 14.686c-.174-1.553-.123-1.87-.511-2.21-.7656431-.601098-1.3763167-1.3766981-1.781-2.262-.228-.579-.236-.565-.644-.856l-.132-1.18c.51-.593.421-.442.111-3.161-.0008391-.509215.1893549-1.0002225.533-1.376.6500352-.542237 1.4889866-.8037797 2.332-.727 2.961 0 3.509 1.921 3.574 2.216.332 2.963.186 2.613.83 3.211l.128 1.155c-.2780775.2238099-.4404508.5610468-.442.918-.1565732.7022004-.4944679 1.351096-.98 1.882-.655.713-.544.588-.318 2.613.1495501 1.0154141.7836832 1.8946209 1.7 2.357 3.9 2.06 3.94 2.09 4.3 2.648h-13.64c.0977064-.3330113.3265447-.6120208.634-.773.077-.041.781-.56 2.958-1.868.9248636-.5165135 1.4545481-1.533052 1.348-2.587zm-4.966-34.406c-.1206529-.30675868-.0823822-.65327158.1023063-.92630672.1846885-.27303513.4920677-.43751564.8216937-.43969328h34.1c.3317488-.00243087.6422036.16314503.825.44.354.525.08.97-.154 1.56h-35.442zm-2.072 2.634h40.092c.3318143-.00012183.6420806.16435369.8282135.43904498s.2238896.62382132.1007865.93195502l-.652 1.629h-40.646l-.652-1.629c-.12310314-.3081337-.08534639-.65726373.10078651-.93195502s.49639917-.43916681.82821349-.43904498zm-2.114 5h44.32c.6162545-.0000611 1.1981267.2839764 1.5771598.7698812s.5128982 1.119413.3628402 1.7171188l-.128.513h-47.944l-.128-.51c-.15114802-.5981282-.01779869-1.2325375.36136573-1.719197s.96170395-.7710972 1.57863427-.770803zm-2.84 5h49.1c.8519721.0001286 1.6637071.3624957 2.2326338.9966715.5689266.6341758.8413792 1.4803397.7493662 2.3273285l-2.436 23.676h-25.646v-20c0-1.6568542-1.3431458-3-3-3h-16.818c-.84090333-.0000807-1.6432371.3527682-2.21152507.9725804-.56828796.6198122-.85035322 1.4496803-.77747493 2.2874196l1.716 19.74h-3.458l-2.433-23.681c-.09048993-.8461773.18265215-1.6909708.7514049-2.3239991.56875276-.6330283 1.37959308-.9947196 2.2305951-.9950009z"/><path id="Shape" d="m34 27h18.181c.9525369-.0024323 1.7720146-.6743957 1.961-1.608l.6-3c.1174596-.5876598-.0347914-1.1970223-.4148497-1.6603758s-.9478668-.7318616-1.5471503-.7316242h-18.78c-1.1045695 0-2 .8954305-2 2v3c0 1.1045695.8954305 2 2 2zm0-5h18.78l-.6 3c0 1.3 0 1.372 0 0h-18.18z"/><path id="Shape" d="m33 32h2c.5522847 0 1-.4477153 1-1s-.4477153-1-1-1h-2c-.5522847 0-1 .4477153-1 1s.4477153 1 1 1z"/><path id="Shape" d="m52 30h-13c-.5522847 0-1 .4477153-1 1s.4477153 1 1 1h13c.5522847 0 1-.4477153 1-1s-.4477153-1-1-1z"/><path id="Shape" d="m33 37h10c.5522847 0 1-.4477153 1-1s-.4477153-1-1-1h-10c-.5522847 0-1 .4477153-1 1s.4477153 1 1 1z"/><path id="Shape" d="m51 35h-4c-.5522847 0-1 .4477153-1 1s.4477153 1 1 1h4c.5522847 0 1-.4477153 1-1s-.4477153-1-1-1z"/></g></svg>