<?xml version="1.0" standalone="no"?>
<!DOCTYPE svg PUBLIC "-//W3C//DTD SVG 20010904//EN"
 "http://www.w3.org/TR/2001/REC-SVG-20010904/DTD/svg10.dtd">
<svg version="1.0" xmlns="http://www.w3.org/2000/svg"
 width="420.000000pt" height="165.000000pt" viewBox="0 0 420.000000 165.000000"
 preserveAspectRatio="xMidYMid meet">
<metadata>
Created by potrace 1.15, written by Peter Selinger 2001-2017
</metadata>
<g transform="translate(0.000000,165.000000) scale(0.100000,-0.100000)"
fill="#000000" stroke="none">
<path d="M3150 975 l0 -375 75 0 75 0 0 -75 0 -75 150 0 150 0 0 75 0 75 -150
0 -150 0 0 150 0 150 150 0 150 0 0 75 0 75 -150 0 -150 0 0 150 0 150 -75 0
-75 0 0 -375z"/>
<path d="M1050 1125 l0 -75 -75 0 -75 0 0 -225 0 -225 75 0 75 0 0 -75 0 -75
150 0 150 0 0 -150 0 -150 75 0 75 0 0 450 0 450 -75 0 -75 0 0 75 0 75 -150
0 -150 0 0 -75z m300 -300 l0 -225 -150 0 -150 0 0 225 0 225 150 0 150 0 0
-225z"/>
<path d="M1650 825 l0 -375 75 0 75 0 0 225 0 225 75 0 75 0 0 75 0 75 150 0
150 0 0 75 0 75 -150 0 -150 0 0 -75 0 -75 -75 0 -75 0 0 75 0 75 -75 0 -75 0
0 -375z"/>
<path d="M2400 1050 l0 -150 75 0 75 0 0 -75 0 -75 -75 0 -75 0 0 -150 0 -150
75 0 75 0 0 150 0 150 150 0 150 0 0 -150 0 -150 75 0 75 0 0 150 0 150 -75 0
-75 0 0 75 0 75 75 0 75 0 0 150 0 150 -75 0 -75 0 0 -150 0 -150 -150 0 -150
0 0 150 0 150 -75 0 -75 0 0 -150z"/>
<path d="M600 525 l0 -75 75 0 75 0 0 75 0 75 -75 0 -75 0 0 -75z" fill="red"/>
</g>
</svg>
